<svg width="32" height="32" viewBox="0 0 32 32" fill="none" xmlns="http://www.w3.org/2000/svg">
<path d="M0 16C0 7.16344 7.16344 0 16 0C24.8366 0 32 7.16344 32 16C32 24.8366 24.8366 32 16 32C7.16344 32 0 24.8366 0 16Z" fill="white" fill-opacity="0.5"/>
<path d="M15.8004 8C15.9338 8 16.0672 8 16.2121 8.00481C16.2926 8.01131 16.3615 8.013 16.4371 8.01603C16.492 8.02093 16.5403 8.0233 16.5884 8.02824C16.7833 8.04827 16.9788 8.06485 17.173 8.09046C17.6396 8.15198 18.0948 8.26429 18.5411 8.41291C18.9952 8.56413 19.4317 8.75568 19.8519 8.98586C20.5131 9.34808 21.1102 9.7967 21.6451 10.3274C21.8173 10.4982 21.9789 10.6806 22.1363 10.8654C22.6242 11.4378 23.0163 12.0716 23.3231 12.7586C23.563 13.2956 23.7411 13.8529 23.8562 14.4298C23.9207 14.7533 23.9738 15.0787 23.9856 15.4159C23.9898 15.4595 23.9949 15.4965 24 15.5335C24 15.8625 24 16.1915 23.9952 16.5317C23.9894 16.5766 23.9884 16.6104 23.9863 16.651C23.983 16.853 23.9534 17.0451 23.9255 17.2375C23.8592 17.6946 23.7508 18.1416 23.6052 18.5798C23.4611 19.0135 23.2798 19.4309 23.0645 19.8338C22.7282 20.4635 22.3128 21.0358 21.8247 21.5548C21.5807 21.8141 21.3194 22.0555 21.0425 22.2796C20.5187 22.7036 19.9513 23.057 19.3398 23.3381C18.8416 23.5671 18.3245 23.7415 17.79 23.8631C17.5267 23.923 17.261 23.9702 16.9895 24C16.9895 22.1627 16.9895 20.3284 16.9895 18.4877C17.3523 18.4877 17.7101 18.4877 18.0679 18.4877C18.4258 18.4877 18.7838 18.4877 19.1399 18.4877C19.166 18.3879 19.598 16.0838 19.5806 16.0278C18.7192 16.0278 17.8555 16.0278 16.9896 16.0278C16.9874 16.0111 16.9849 16.0013 16.985 15.9915C16.9887 15.6091 16.9888 15.2266 16.9983 14.8444C17.0032 14.649 17.0431 14.4575 17.1057 14.2716C17.2319 13.8972 17.4792 13.6423 17.8504 13.5081C18.0175 13.4478 18.1901 13.4119 18.366 13.3947C18.7285 13.3592 19.0918 13.3728 19.4548 13.3854C19.5433 13.3884 19.6317 13.3941 19.7223 13.3987C19.7223 12.6545 19.7223 11.9167 19.7223 11.1775C19.693 11.1699 19.6688 11.1615 19.6438 11.1574C19.4092 11.1193 19.1752 11.0777 18.9398 11.0454C18.6356 11.0037 18.3293 10.982 18.0222 10.9778C17.7535 10.9742 17.4854 10.989 17.218 11.0176C16.8532 11.0568 16.4955 11.1281 16.1495 11.2525C15.712 11.4098 15.3224 11.6434 15.0008 11.9842C14.7038 12.299 14.4984 12.6682 14.3563 13.0751C14.1698 13.6086 14.0987 14.1621 14.085 14.7234C14.075 15.1288 14.0812 15.5346 14.0802 15.9403C14.0802 15.9677 14.0802 15.9951 14.0802 16.031C13.5279 16.031 12.9843 16.031 12.4421 16.031C12.4247 16.1368 12.4301 18.4302 12.4481 18.4877C12.5356 18.4877 12.6248 18.4877 12.7141 18.4877C12.8062 18.4877 12.8983 18.4877 12.9904 18.4877C13.08 18.4877 13.1696 18.4877 13.2591 18.4877C13.3512 18.4877 13.4434 18.4877 13.5355 18.4877C13.6251 18.4877 13.7146 18.4868 13.8042 18.488C13.8949 18.4892 13.9861 18.4828 14.0747 18.4921C14.0747 20.273 14.0747 22.0451 14.0747 23.8284C13.8933 23.7747 13.7187 23.727 13.5467 23.6713C12.8076 23.432 12.1183 23.0906 11.4788 22.648C11.0423 22.3458 10.6391 22.0047 10.2702 21.6219C10.0122 21.3543 9.77326 21.0714 9.55374 20.7714C9.06757 20.1072 8.69461 19.3839 8.43059 18.6039C8.30648 18.2373 8.2099 17.8631 8.14185 17.4821C8.08294 17.1522 8.03882 16.8202 8.02767 16.4846C8.02719 16.4701 8.02062 16.4558 8.01787 16.4343C8.01906 16.3801 8.02079 16.3328 8.01855 16.2857C8.01785 16.271 8.00648 16.2567 8 16.2422C8 16.1083 8 15.9745 8.00529 15.8295C8.01271 15.7546 8.01484 15.6909 8.02084 15.6219C8.04288 15.4054 8.05393 15.1932 8.08072 14.983C8.13513 14.5562 8.22503 14.1365 8.34822 13.7237C8.56727 12.9896 8.88543 12.302 9.30121 11.6601C9.65063 11.1206 10.0585 10.6298 10.5267 10.1892C10.7411 9.98741 10.9643 9.79652 11.1987 9.61895C11.721 9.2233 12.2836 8.8968 12.8861 8.64039C13.3784 8.43082 13.8867 8.27209 14.4114 8.16592C14.8042 8.08642 15.2005 8.0372 15.6074 8.01516C15.6564 8.01558 15.6984 8.01703 15.7402 8.01463C15.7605 8.01346 15.7803 8.0051 15.8004 8Z" fill="#261008"/>
<path d="M16.4228 8C16.4299 8 16.4296 8.00736 16.43 8.01103C16.3615 8.013 16.2926 8.01131 16.2193 8.00481C16.2819 8 16.3488 8 16.4228 8Z" fill="#ABCBFF"/>
<path d="M15.6074 8.01516C15.6004 8.01461 15.601 8.00732 15.6009 8.00366C15.6626 8 15.7244 8 15.7933 8C15.7803 8.0051 15.7605 8.01346 15.7402 8.01463C15.6984 8.01703 15.6564 8.01558 15.6074 8.01516Z" fill="#261008"/>
<path d="M8 15.6331C8.00284 15.6259 8.00569 15.6259 8.01275 15.6265C8.01484 15.6909 8.01271 15.7546 8.00529 15.8223C8 15.7642 8 15.7022 8 15.6331Z" fill="#AACAFF"/>
<path d="M8.01787 16.4343C8.01408 16.4418 8.01129 16.4422 8.00424 16.4425C8 16.3804 8 16.3184 8 16.2493C8.00648 16.2567 8.01785 16.271 8.01855 16.2857C8.02079 16.3328 8.01906 16.3801 8.01787 16.4343Z" fill="#ADCCFF"/>
<path d="M23.9856 15.4159C23.9865 15.4093 23.9933 15.4096 23.9966 15.4099C24 15.4468 24 15.4833 24 15.5267C23.9949 15.4965 23.9898 15.4595 23.9856 15.4159Z" fill="#AACAFF"/>
<path d="M24 16.636C24 16.6427 23.9938 16.6447 23.9905 16.6444C23.9884 16.6104 23.9894 16.5767 23.9952 16.5389C24 16.5663 24 16.5978 24 16.636Z" fill="#A7C8FF"/>
</svg>
