<svg width="40" height="40" viewBox="0 0 40 40" fill="none" xmlns="http://www.w3.org/2000/svg">
<rect width="40" height="40" rx="20" fill="white" fill-opacity="0.5"/>
<path d="M20.0179 15.875C22.2679 15.875 24.125 17.7321 24.125 19.9821C24.125 22.2679 22.2679 24.0893 20.0179 24.0893C17.7321 24.0893 15.9107 22.2679 15.9107 19.9821C15.9107 17.7321 17.7321 15.875 20.0179 15.875ZM20.0179 22.6607C21.4821 22.6607 22.6607 21.4821 22.6607 19.9821C22.6607 18.5179 21.4821 17.3393 20.0179 17.3393C18.5179 17.3393 17.3393 18.5179 17.3393 19.9821C17.3393 21.4821 18.5536 22.6607 20.0179 22.6607ZM25.2321 15.7321C25.2321 15.1964 24.8036 14.7679 24.2679 14.7679C23.7321 14.7679 23.3036 15.1964 23.3036 15.7321C23.3036 16.2679 23.7321 16.6964 24.2679 16.6964C24.8036 16.6964 25.2321 16.2679 25.2321 15.7321ZM27.9464 16.6964C28.0179 18.0179 28.0179 21.9821 27.9464 23.3036C27.875 24.5893 27.5893 25.6964 26.6607 26.6607C25.7321 27.5893 24.5893 27.875 23.3036 27.9464C21.9821 28.0179 18.0179 28.0179 16.6964 27.9464C15.4107 27.875 14.3036 27.5893 13.3393 26.6607C12.4107 25.6964 12.125 24.5893 12.0536 23.3036C11.9821 21.9821 11.9821 18.0179 12.0536 16.6964C12.125 15.4107 12.4107 14.2679 13.3393 13.3393C14.3036 12.4107 15.4107 12.125 16.6964 12.0536C18.0179 11.9821 21.9821 11.9821 23.3036 12.0536C24.5893 12.125 25.7321 12.4107 26.6607 13.3393C27.5893 14.2679 27.875 15.4107 27.9464 16.6964ZM26.2321 24.6964C26.6607 23.6607 26.5536 21.1607 26.5536 19.9821C26.5536 18.8393 26.6607 16.3393 26.2321 15.2679C25.9464 14.5893 25.4107 14.0179 24.7321 13.7679C23.6607 13.3393 21.1607 13.4464 20.0179 13.4464C18.8393 13.4464 16.3393 13.3393 15.3036 13.7679C14.5893 14.0536 14.0536 14.5893 13.7679 15.2679C13.3393 16.3393 13.4464 18.8393 13.4464 19.9821C13.4464 21.1607 13.3393 23.6607 13.7679 24.6964C14.0536 25.4107 14.5893 25.9464 15.3036 26.2321C16.3393 26.6607 18.8393 26.5536 20.0179 26.5536C21.1607 26.5536 23.6607 26.6607 24.7321 26.2321C25.4107 25.9464 25.9821 25.4107 26.2321 24.6964Z" fill="#261008"/>
</svg>
