<svg width="32" height="32" viewBox="0 0 32 32" fill="none" xmlns="http://www.w3.org/2000/svg">
<path d="M0 16C0 7.16344 7.16344 0 16 0C24.8366 0 32 7.16344 32 16C32 24.8366 24.8366 32 16 32C7.16344 32 0 24.8366 0 16Z" fill="white" fill-opacity="0.5"/>
<path d="M8 22.9936C8 18.3101 8 13.6266 8.00756 8.93161C8.02318 8.90959 8.03567 8.90024 8.03867 8.88847C8.13403 8.51395 8.35694 8.24756 8.71302 8.09748C8.80732 8.05773 8.90756 8.03211 9.00508 8C13.6618 8 18.3185 8 22.9875 8.0079C23.5388 8.08682 23.9964 8.5495 23.997 9.13587C24.001 13.677 23.9989 18.2182 24 22.7594C24.0001 23.0077 23.9573 23.2417 23.8191 23.4525C23.6882 23.6523 23.5236 23.8124 23.296 23.8979C23.2026 23.9329 23.1084 23.966 23.0146 24C18.3442 24 13.6738 24 8.99129 23.9921C8.86064 23.9469 8.73189 23.928 8.62559 23.8687C8.32728 23.7024 8.11989 23.4564 8.03902 23.1154C8.03689 23.1065 8.01348 23.1025 8 23.0963C8 23.0871 8 23.078 8.00697 23.0603C8.00929 23.0324 8.00465 23.013 8 22.9936ZM18.5341 13.8331C18.3993 13.8537 18.2621 13.8638 18.1303 13.8965C17.478 14.0582 16.9487 14.3975 16.5931 14.9827C16.5751 15.0122 16.5384 15.0303 16.5104 15.0537C16.5028 15.0471 16.4953 15.0405 16.4877 15.034C16.4877 14.6967 16.4877 14.3594 16.4877 14.024C15.74 14.024 15.0002 14.024 14.262 14.024C14.262 16.5577 14.262 19.0853 14.262 21.6116C15.0419 21.6116 15.8159 21.6116 16.5944 21.6116C16.5944 21.5719 16.5944 21.5381 16.5944 21.5043C16.5944 20.8061 16.5918 20.1078 16.5952 19.4095C16.5985 18.7403 16.6086 18.0711 16.6147 17.4019C16.617 17.1458 16.6692 16.8973 16.7631 16.6629C16.8968 16.3288 17.118 16.0758 17.4801 15.9666C17.7453 15.8866 18.0109 15.8652 18.2833 15.9074C18.5705 15.9518 18.809 16.0707 18.9756 16.3223C19.1904 16.6468 19.2531 17.0153 19.2563 17.3867C19.2681 18.7592 19.261 20.1318 19.261 21.5044C19.261 21.5406 19.261 21.5769 19.261 21.6115C20.0536 21.6115 20.8345 21.6115 21.6198 21.6115C21.6198 21.5855 21.6199 21.5655 21.6198 21.5454C21.613 20.0581 21.6077 18.5708 21.5976 17.0835C21.5961 16.8643 21.5747 16.645 21.5578 16.4262C21.5266 16.0239 21.4423 15.6326 21.2906 15.2583C21.1387 14.8833 20.9174 14.554 20.5882 14.3138C20.149 13.9934 19.6428 13.8622 19.1073 13.8346C18.9232 13.8251 18.7381 13.8331 18.5341 13.8331ZM11.5588 14.018C11.1739 14.018 10.7891 14.018 10.4057 14.018C10.4057 16.5575 10.4057 19.0852 10.4057 21.6115C11.1857 21.6115 11.9597 21.6115 12.7324 21.6115C12.7324 19.0779 12.7324 16.5502 12.7324 14.018C12.3441 14.018 11.9617 14.018 11.5588 14.018ZM12.4414 10.5472C12.1312 10.2907 11.7837 10.1751 11.3771 10.2358C11.087 10.2791 10.836 10.3974 10.6307 10.5976C10.3554 10.866 10.2088 11.1935 10.2127 11.5892C10.2174 12.0724 10.425 12.4442 10.8122 12.7109C11.128 12.9285 11.4816 12.9988 11.8646 12.911C12.1829 12.8381 12.4377 12.6696 12.6373 12.4204C12.7919 12.2273 12.8942 12.0011 12.9199 11.754C12.9535 11.4308 12.899 11.1188 12.7119 10.8458C12.6394 10.7401 12.5393 10.6534 12.4414 10.5472Z" fill="#261008"/>
<path d="M8.99546 8C8.90756 8.03211 8.80732 8.05773 8.71302 8.09748C8.35694 8.24756 8.13403 8.51395 8.03867 8.88847C8.03567 8.90024 8.02318 8.90959 8.00756 8.92217C8 8.61762 8 8.31097 8 8C8.3286 8 8.65723 8 8.99546 8Z" fill="white"/>
<path d="M8 23.1059C8.01348 23.1026 8.03689 23.1065 8.03902 23.1154C8.11989 23.4564 8.32728 23.7024 8.62559 23.8687C8.73189 23.928 8.86064 23.947 8.98186 23.9922C8.65795 24 8.33133 24 8 24C8 23.7052 8 23.4104 8 23.1059Z" fill="white"/>
<path d="M8 23.0013C8.00465 23.013 8.00929 23.0324 8.00697 23.0535C8 23.0398 8 23.0244 8 23.0013Z" fill="white"/>
<path d="M18.5437 13.8331C18.7381 13.8331 18.9232 13.8251 19.1073 13.8346C19.6428 13.8622 20.149 13.9934 20.5882 14.3138C20.9174 14.554 21.1387 14.8833 21.2906 15.2583C21.4423 15.6326 21.5266 16.0239 21.5578 16.4262C21.5747 16.645 21.5961 16.8643 21.5976 17.0835C21.6077 18.5708 21.613 20.0581 21.6198 21.5454C21.6199 21.5655 21.6198 21.5855 21.6198 21.6115C20.8345 21.6115 20.0536 21.6115 19.261 21.6115C19.261 21.5769 19.261 21.5406 19.261 21.5044C19.261 20.1318 19.2681 18.7592 19.2563 17.3867C19.2531 17.0153 19.1904 16.6468 18.9756 16.3223C18.809 16.0707 18.5705 15.9518 18.2833 15.9074C18.0109 15.8652 17.7453 15.8866 17.4801 15.9666C17.118 16.0758 16.8968 16.3288 16.7631 16.6629C16.6692 16.8973 16.617 17.1458 16.6147 17.4019C16.6086 18.0711 16.5985 18.7403 16.5952 19.4095C16.5918 20.1078 16.5944 20.8061 16.5944 21.5043C16.5944 21.5381 16.5944 21.5719 16.5944 21.6116C15.8159 21.6116 15.0419 21.6116 14.262 21.6116C14.262 19.0853 14.262 16.5577 14.262 14.024C15.0002 14.024 15.74 14.024 16.4877 14.024C16.4877 14.3594 16.4877 14.6967 16.4877 15.034C16.4953 15.0405 16.5028 15.0471 16.5104 15.0537C16.5384 15.0303 16.5751 15.0122 16.5931 14.9827C16.9487 14.3975 17.478 14.0582 18.1303 13.8965C18.2621 13.8638 18.3993 13.8537 18.5437 13.8331Z" fill="white"/>
<path d="M11.569 14.018C11.9617 14.018 12.3441 14.018 12.7324 14.018C12.7324 16.5502 12.7324 19.0779 12.7324 21.6115C11.9597 21.6115 11.1857 21.6115 10.4057 21.6115C10.4057 19.0852 10.4057 16.5575 10.4057 14.018C10.7891 14.018 11.1739 14.018 11.569 14.018Z" fill="white"/>
<path d="M12.4466 10.5526C12.5393 10.6534 12.6394 10.7401 12.7119 10.8458C12.899 11.1188 12.9535 11.4308 12.9199 11.754C12.8942 12.0011 12.7919 12.2273 12.6373 12.4204C12.4377 12.6696 12.1829 12.8381 11.8646 12.911C11.4816 12.9988 11.128 12.9285 10.8122 12.7109C10.425 12.4442 10.2174 12.0724 10.2127 11.5892C10.2088 11.1935 10.3554 10.866 10.6307 10.5976C10.836 10.3974 11.087 10.2791 11.3771 10.2358C11.7837 10.1751 12.1312 10.2907 12.4466 10.5526Z" fill="white"/>
</svg>
