<svg width="243" height="80" viewBox="0 0 243 80" fill="none" xmlns="http://www.w3.org/2000/svg">
<path d="M120.508 0.0855211C120.337 0.161467 120.11 0.37032 120.005 0.541199C119.816 0.854477 119.816 0.94941 119.816 28.6983C119.816 54.3112 119.825 56.5706 119.968 56.8174C120.403 57.5389 121.541 57.5769 122.005 56.8744C122.119 56.7035 122.147 52.9062 122.185 30.7014L122.232 4.71824L138.862 26.4579C148.006 38.4194 155.615 48.3019 155.757 48.4253C155.966 48.5962 156.136 48.6532 156.487 48.6532C156.875 48.6532 156.999 48.6057 157.283 48.3304C157.586 48.0456 157.624 47.9602 157.624 47.533C157.624 47.0868 157.586 47.0013 156.847 46.0235C151.815 39.3877 121.806 0.275387 121.664 0.180454C121.351 -0.018905 120.839 -0.0568781 120.508 0.0855211Z" fill="#261008"/>
<path d="M63.3693 0.237428C62.7154 0.626653 62.7723 -1.93654 62.7723 28.7647C62.7723 53.8745 62.7912 56.5801 62.9239 56.8649C63.3029 57.6623 64.6106 57.6623 64.9896 56.8649C65.1223 56.5801 65.1412 53.8745 65.1412 28.7458C65.1412 1.34814 65.1412 0.949425 64.9517 0.645639C64.6011 0.0665491 63.9283 -0.10433 63.3693 0.237428Z" fill="#261008"/>
<path d="M70.2012 0.199438C69.3863 0.598156 69.3958 1.88924 70.2202 2.27847C70.4855 2.40188 71.6984 2.42087 79.6769 2.42087C89.0768 2.42087 89.8064 2.44935 91.6542 2.81009C95.1128 3.49361 98.2303 5.35429 100.154 7.87951C103.091 11.7338 103.11 17.8569 100.201 21.7967C99.5759 22.6321 98.1356 24.0181 97.2638 24.6067C95.1413 26.0402 92.3649 26.999 89.5032 27.2933C88.8968 27.3502 85.1918 27.3882 79.7906 27.3882C71.2057 27.3882 71.0541 27.3882 70.7508 27.5781C70.4287 27.7774 70.1633 28.2521 70.1633 28.6318C70.1633 29.0495 70.4855 29.4767 71.5563 30.4356C72.1627 30.9767 73.5177 32.1918 74.5601 33.1316C75.6119 34.081 78.1514 36.3404 80.2076 38.1726C82.2638 39.9953 85.6561 43.0047 87.7408 44.8559C95.1507 51.4347 101.547 57.0547 101.746 57.1686C101.86 57.2351 102.153 57.2826 102.4 57.2921C103.205 57.2921 103.745 56.5611 103.489 55.7921C103.404 55.5168 102.959 55.0801 101.386 53.6941C93.0566 46.3748 84.6896 38.9605 77.6302 32.657L74.4464 29.809L82.1785 29.752C90.7256 29.6951 90.6498 29.7046 93.1419 29.0495C96.0699 28.2901 98.6757 26.8946 100.419 25.1478C102.324 23.2586 103.527 21.2366 104.181 18.8348C105.726 13.1293 103.954 7.26244 99.6801 3.89233C96.9606 1.74684 93.6915 0.484237 89.9675 0.151972C89.2948 0.0855188 85.3624 0.0475457 79.6864 0.0475457C71.6984 0.0475457 70.4571 0.0665323 70.2012 0.199438Z" fill="#261008"/>
<path d="M162.675 0.237416C162.021 0.626641 162.078 -1.93655 162.078 28.7837C162.078 56.1813 162.078 56.5801 162.267 56.8838C162.599 57.4439 163.224 57.6243 163.831 57.33C164.503 57.0168 164.446 59.5704 164.446 28.7647C164.446 3.655 164.428 0.949412 164.295 0.664614C164.03 0.0950167 163.243 -0.113836 162.675 0.237416Z" fill="#261008"/>
<path d="M180.015 0.23741C179.361 0.626635 179.418 -1.94605 179.418 28.8597C179.418 54.0548 179.437 56.7699 179.57 57.0547C179.949 57.8522 181.256 57.8522 181.635 57.0547C181.768 56.7699 181.787 54.0548 181.787 28.8407C181.787 1.34812 181.787 0.949407 181.598 0.645621C181.247 0.0665311 180.574 -0.104348 180.015 0.23741Z" fill="#261008"/>
<path d="M187.321 0.14249C186.515 0.465262 186.373 1.71838 187.084 2.20253C187.311 2.35443 187.766 2.38291 192.21 2.43037C197.412 2.49682 197.839 2.5253 200.151 3.04744C209.721 5.18342 217.444 13.0913 219.595 22.9738C220.088 25.1858 220.201 26.287 220.201 28.7647C220.211 31.176 220.116 32.2298 219.737 34.1759C217.728 44.3337 209.93 52.4885 200.151 54.6719C197.829 55.194 197.412 55.2225 192.182 55.289L187.264 55.3459L186.942 55.6972C186.686 55.982 186.62 56.1339 186.62 56.4377C186.62 56.9598 186.828 57.33 187.226 57.5199C187.51 57.6528 188.06 57.6718 191.755 57.6718C196.237 57.6718 197.46 57.6053 199.554 57.2446C202.141 56.7984 204.254 56.1054 206.661 54.9187C209.456 53.5422 211.73 51.8904 214.061 49.5645C216.563 47.0583 218.05 44.9983 219.538 42.0174C223.082 34.9354 223.575 26.5813 220.912 18.9867C219.879 16.0343 218.202 13.0154 216.184 10.4902C215.16 9.21807 213.104 7.14853 211.825 6.12326C207.551 2.70568 202.425 0.645634 196.901 0.14249C195.65 0.0285707 187.605 0.0285707 187.321 0.14249Z" fill="#261008"/>
<path d="M25.8171 0.294383C25.6371 0.313369 25.078 0.379822 24.5853 0.436782C20.7665 0.86398 16.7015 2.30696 13.1955 4.48092C11.3477 5.62012 8.98826 7.57573 7.68062 9.0377C3.49236 13.7274 1.0192 19.0531 0.175866 25.2048C-0.032599 26.7047 -0.0610261 30.8438 0.119012 32.3247C1.00025 39.4637 4.49678 46.1754 9.65156 50.6278C13.4134 53.8745 17.8196 56.0864 22.2732 56.9503C24.3578 57.349 25.3338 57.4345 27.9017 57.425C30.4981 57.4155 31.9384 57.2636 34.023 56.7699C37.6996 55.8966 41.5373 54.0359 44.6263 51.6246C45.934 50.5993 47.4785 49.1563 47.6491 48.7956C47.7912 48.5108 47.8007 47.8273 47.7817 42.1503L47.7533 35.8183L47.4501 35.5429C47.2795 35.3911 47.0237 35.2392 46.8816 35.2107C46.4931 35.1063 45.8961 35.3626 45.6497 35.7328L45.4318 36.0556V47.6849L44.5979 48.4823C41.9352 51.017 38.2018 53.1245 34.5632 54.1498C26.7552 56.3522 18.4734 54.6624 12.0773 49.5455C11.0445 48.7196 8.97879 46.6501 8.1544 45.6153C6.4772 43.5078 4.81896 40.5744 3.92824 38.1156C3.3976 36.6632 2.84801 34.4702 2.59217 32.7899C2.3079 30.9672 2.27947 27.2078 2.54479 25.4421C3.24599 20.6575 4.91371 16.5184 7.60481 12.9015C8.66609 11.4775 10.7697 9.27503 12.1247 8.1833C15.6971 5.28785 19.9801 3.45565 24.7274 2.78162C26.0635 2.59176 29.5884 2.62024 31.0761 2.83858C36.3825 3.59805 41.0161 5.86694 45.0243 9.66426C46.0667 10.6516 46.3604 10.794 46.9953 10.5851C47.4501 10.4332 47.7059 10.0155 47.7059 9.39844V8.92378L46.6352 7.87002C42.6743 3.99676 37.0079 1.2627 31.313 0.474755C30.2801 0.332356 26.5467 0.208943 25.8171 0.294383Z" fill="#261008"/>
<path d="M21.1172 27.5781C20.7666 27.8059 20.5676 28.2141 20.5865 28.6793C20.6055 29.116 20.7476 29.3533 21.1077 29.5717C21.4014 29.752 21.7046 29.7615 34.1368 29.7615C48.2555 29.7615 47.3364 29.7995 47.6491 29.1445C47.9428 28.5369 47.7628 27.9103 47.2037 27.5781C46.91 27.3882 46.6352 27.3882 34.1557 27.3882C21.5436 27.3882 21.4109 27.3977 21.1172 27.5781Z" fill="#261008"/>
<path d="M239.134 52.9346C237.893 53.5517 237.343 54.8713 237.75 56.2478C237.959 56.9598 238.783 57.7857 239.494 57.9946C240.47 58.2889 241.37 58.1085 242.081 57.4819C242.725 56.9123 243 56.2858 243 55.4029C242.991 54.2257 242.517 53.4093 241.55 52.9251C240.745 52.5169 239.949 52.5264 239.134 52.9346Z" fill="#261008"/>
<path d="M241.787 72.88C241.626 73.0414 241.645 73.4022 241.834 73.5066C241.977 73.592 241.977 73.6395 241.825 74.2376C241.664 74.9021 241.673 75.0065 241.891 74.9211C242.005 74.8736 242.431 73.4781 242.431 73.1364C242.431 72.9465 242.242 72.7661 242.052 72.7661C241.967 72.7661 241.853 72.8136 241.787 72.88Z" fill="#261008"/>
<path d="M1.08552 79.981H1.5593V77.7975H2.72481C4.601 77.7975 5.42538 77.4748 5.89917 76.5634C6.354 75.6616 6.09816 74.3895 5.34958 73.8009C4.82842 73.3832 4.08931 73.2408 2.48792 73.2408H1.08552V79.981ZM4.59152 73.8483C5.35906 74.2471 5.63385 74.6932 5.63385 75.5192C5.63385 76.1837 5.49171 76.516 5.02741 76.9242C4.601 77.3039 4.2504 77.3704 2.79114 77.3704H1.60668L1.57825 75.6141C1.56878 74.6553 1.57825 73.8009 1.60668 73.7344C1.68249 73.5161 4.13669 73.6205 4.59152 73.8483Z" fill="#261008"/>
<path d="M16.2466 79.981H16.7204V73.2408H16.2466V79.981Z" fill="#261008"/>
<path d="M27.5227 79.981H29.7021C31.8152 79.981 31.8815 79.9715 31.8815 79.7911C31.8815 79.6108 31.8057 79.6013 29.9674 79.5823L28.0439 79.5538L28.0154 76.3925L27.9965 73.2408H27.5227V79.981Z" fill="#261008"/>
<path d="M43.5366 73.4401C43.385 73.7249 40.5992 79.8956 40.5992 79.9525C40.5992 79.9715 40.7129 79.981 40.8455 79.962C41.0635 79.9335 41.1488 79.8101 41.4994 79.0317L41.9068 78.1298L43.8209 78.1013L45.7255 78.0824L46.1709 79.0317C46.5783 79.8956 46.6447 79.981 46.8721 79.981H47.1279L46.8152 79.288C46.6447 78.9178 45.9624 77.3988 45.2896 75.9179C44.2094 73.5351 44.0483 73.2408 43.8588 73.2408C43.7356 73.2408 43.5935 73.3262 43.5366 73.4401ZM44.7685 75.8799C45.2044 76.8292 45.5265 77.6362 45.5076 77.6646C45.4792 77.6836 44.7116 77.6931 43.7925 77.6836L42.1248 77.6552L42.6744 76.421C43.7735 73.9528 43.8304 73.8484 43.9157 74.0002C43.9536 74.0762 44.3421 74.9211 44.7685 75.8799Z" fill="#261008"/>
<path d="M55.2865 73.4306C55.2865 73.6015 55.3623 73.6205 56.4994 73.6395L57.7028 73.668L57.7312 76.8197L57.7502 79.981H58.224V73.6205H59.4084C60.5266 73.6205 60.5929 73.611 60.5929 73.4306C60.5929 73.2408 60.5266 73.2408 57.9397 73.2408C55.3623 73.2408 55.2865 73.2503 55.2865 73.4306Z" fill="#261008"/>
<path d="M70.2581 79.981H72.5323C74.7401 79.981 74.8064 79.9715 74.8064 79.7911C74.8064 79.6108 74.7306 79.6013 72.7976 79.5823L70.7793 79.5538V76.8008L72.5607 76.7723C74.2568 76.7533 74.3326 76.7438 74.3326 76.5634C74.3326 76.3831 74.2663 76.3736 72.5323 76.3736H70.7224L70.7793 73.668L72.7502 73.6395C74.6359 73.6205 74.7117 73.611 74.7117 73.4306C74.7117 73.2503 74.6453 73.2408 72.4849 73.2408H70.2581V79.981Z" fill="#261008"/>
<path d="M85.8456 73.3832C84.4716 73.9148 84.2537 75.728 85.5045 76.3641C85.694 76.4685 86.2815 76.6584 86.7932 76.8008C87.826 77.0856 88.3188 77.3039 88.5557 77.5697C89.1337 78.2248 88.6978 79.2405 87.7313 79.5063C86.8785 79.7437 85.4476 79.4589 84.898 78.9368C84.7085 78.7564 84.6991 78.7564 84.5948 78.9273C84.4527 79.1551 84.6991 79.4019 85.3718 79.7152C85.7793 79.9051 85.9972 79.9335 86.8879 79.9335C87.7881 79.9335 87.9871 79.9051 88.3282 79.7247C89.5222 79.0791 89.598 77.4843 88.4514 76.8957C88.2998 76.8197 87.7218 76.6204 87.1533 76.459C86.5942 76.2976 85.9688 76.0698 85.7698 75.9653C84.917 75.4907 84.917 74.4179 85.7698 73.8863C86.0825 73.6965 86.2531 73.668 86.9827 73.668C87.7313 73.668 87.9018 73.7059 88.3282 73.9338C88.821 74.1901 88.821 74.1901 88.9252 74.0002C89.02 73.8199 88.9821 73.7819 88.4799 73.5541C87.7976 73.2313 86.4615 73.1553 85.8456 73.3832Z" fill="#261008"/>
<path d="M110.34 80L112.311 79.9715C114.235 79.9335 114.282 79.924 114.813 79.6677C115.505 79.326 115.789 78.8228 115.722 78.0254C115.666 77.3799 115.448 77.0666 114.832 76.7438L114.348 76.497L114.699 76.2976C115.144 76.0413 115.362 75.5856 115.362 74.9211C115.362 74.2566 115.097 73.8484 114.462 73.5256C114.017 73.2977 113.884 73.2882 112.169 73.2598L110.34 73.2218V80ZM113.752 73.7249C114.064 73.7914 114.339 73.9338 114.557 74.1426C114.86 74.4179 114.889 74.4939 114.889 74.9781C114.889 75.4432 114.851 75.5571 114.595 75.8419C114.206 76.2976 113.856 76.3736 112.216 76.3736H110.814V75.0635C110.814 74.342 110.842 73.7154 110.88 73.687C110.985 73.5825 113.23 73.611 113.752 73.7249ZM114.529 77.0096C115.05 77.2469 115.268 77.5982 115.268 78.1963C115.268 78.7849 115.002 79.1646 114.443 79.3734C114.064 79.5253 113.723 79.5538 112.425 79.5538H110.861L110.833 78.2817C110.824 77.5792 110.833 76.9432 110.861 76.8672C110.899 76.7628 111.203 76.7438 112.501 76.7723C113.865 76.8008 114.14 76.8387 114.529 77.0096Z" fill="#261008"/>
<path d="M124.743 73.2598C124.743 73.2882 125.34 74.2945 126.07 75.5097L127.397 77.7121V79.981H127.87V77.6267L129.197 75.4337C130.486 73.3072 130.514 73.2408 130.258 73.2408C130.021 73.2503 129.898 73.4211 128.818 75.2344C128.174 76.3261 127.624 77.1995 127.605 77.1805C127.577 77.1615 127.046 76.2691 126.411 75.2154C125.407 73.5351 125.227 73.2882 124.999 73.2598C124.857 73.2408 124.743 73.2408 124.743 73.2598Z" fill="#261008"/>
<path d="M150.707 73.4306C150.707 73.611 150.773 73.6205 151.891 73.6205H153.085L153.028 78.9367L152.744 79.2215C152.213 79.7532 151.323 79.7247 150.697 79.1551C150.366 78.8513 150.299 78.8228 150.176 78.9557C150.053 79.0791 150.062 79.1171 150.233 79.3355C150.849 80.1234 152.498 80.2088 153.133 79.4968C153.512 79.0696 153.549 78.7374 153.549 75.9369V73.2408H152.128C150.773 73.2408 150.707 73.2503 150.707 73.4306Z" fill="#261008"/>
<path d="M164.352 79.981H164.826L164.844 78.3861L164.873 76.8008L167.081 76.7723L169.279 76.7533V79.981H169.753V73.2408H169.279V76.3736H164.826V73.2408H164.352V79.981Z" fill="#261008"/>
<path d="M182.45 73.4401C182.299 73.7249 179.513 79.8956 179.513 79.9525C179.513 79.9715 179.627 79.981 179.759 79.962C179.977 79.9335 180.062 79.8101 180.413 79.0317L180.82 78.1298L182.735 78.1013L184.639 78.0824L185.085 79.0317C185.492 79.8956 185.558 79.981 185.786 79.981H186.042L185.729 79.288C185.558 78.9178 184.876 77.3988 184.203 75.9179C183.123 73.5351 182.962 73.2408 182.772 73.2408C182.649 73.2408 182.507 73.3262 182.45 73.4401ZM183.682 75.8799C184.118 76.8292 184.44 77.6362 184.421 77.6646C184.393 77.6836 183.625 77.6931 182.706 77.6836L181.038 77.6552L181.588 76.421C182.687 73.9528 182.744 73.8484 182.829 74.0002C182.867 74.0762 183.256 74.9211 183.682 75.8799Z" fill="#261008"/>
<path d="M195.716 79.981H196.19V77.7975H197.318C197.943 77.7975 198.512 77.7691 198.587 77.7406C198.682 77.7121 198.966 78.0349 199.507 78.7943C200.293 79.9146 200.407 80.019 200.691 79.962C200.805 79.943 200.653 79.6582 200.037 78.7943L199.222 77.6552L199.573 77.5033C200.331 77.171 200.738 76.4685 200.738 75.4907C200.738 74.7787 200.473 74.1901 199.98 73.8009C199.459 73.3832 198.72 73.2408 197.119 73.2408H195.716V79.981ZM199.222 73.8483C199.99 74.2471 200.265 74.6932 200.265 75.5192C200.265 76.3451 199.99 76.7913 199.222 77.19C198.947 77.3324 198.654 77.3609 197.564 77.3609L196.237 77.3704L196.209 75.6141C196.2 74.6553 196.209 73.8009 196.237 73.7344C196.313 73.5161 198.767 73.6205 199.222 73.8483Z" fill="#261008"/>
<path d="M211.067 80L212.848 79.962C214.857 79.9146 215.34 79.7911 216.08 79.1551C217.605 77.8545 217.605 75.3673 216.08 74.0667C215.34 73.4306 214.857 73.3072 212.848 73.2598L211.067 73.2218V80ZM214.971 73.8958C215.615 74.1426 216.222 74.7122 216.496 75.3103C216.79 75.9464 216.79 77.2754 216.496 77.9115C216.222 78.5096 215.615 79.0792 214.971 79.326C214.497 79.5158 214.251 79.5443 213.009 79.5443L211.588 79.5538L211.56 76.7058C211.55 75.1394 211.56 73.8009 211.588 73.7344C211.626 73.63 211.91 73.611 213.038 73.6395C214.184 73.6775 214.526 73.7249 214.971 73.8958Z" fill="#261008"/>
<path d="M227.365 79.981H229.639C231.847 79.981 231.913 79.9715 231.913 79.7911C231.913 79.6108 231.838 79.6013 229.905 79.5823L227.886 79.5538V76.8008L229.668 76.7723C231.364 76.7533 231.44 76.7438 231.44 76.5634C231.44 76.3831 231.373 76.3736 229.639 76.3736H227.829L227.886 73.668L229.857 73.6395C231.743 73.6205 231.819 73.611 231.819 73.4306C231.819 73.2503 231.752 73.2408 229.592 73.2408H227.365V79.981Z" fill="#261008"/>
</svg>
