<svg width="219" height="241" viewBox="0 0 219 241" fill="none" xmlns="http://www.w3.org/2000/svg">
<path d="M90.8315 111.717L91.6364 125.354C91.6364 125.354 102.972 129.854 107.869 129.854C112.765 129.854 127.186 125.354 127.186 125.354L127.991 111.717H90.8315Z" fill="#261008"/>
<path d="M0.683594 44.002C0.683594 41.5165 11.2814 42.86 14.501 42.1882L18.2572 43.9348C41.5321 42.5241 52.3982 44.2707 52.3982 44.2707C66.2826 42.7928 91.2344 43.6661 96.4662 44.6066C99.6187 45.144 96.7345 58.9825 92.7771 58.9825C86.7404 58.3779 57.0263 53.4068 52.3982 52.8694C51.7945 52.8022 18.1901 49.6449 18.1901 49.6449C18.1901 49.6449 16.8486 49.6449 14.568 50.451C11.4826 51.5259 6.85446 51.2572 4.3727 50.048C2.36046 49.1075 0.683594 46.5547 0.683594 44.002Z" fill="#BB8161"/>
<path d="M11.2144 43.8005C11.2144 43.8005 7.86069 44.0692 7.52532 42.3226C7.25702 40.8447 7.3241 40.3073 14.434 42.7928C14.434 42.7928 14.2999 43.8005 11.2144 43.8005Z" fill="#BB8161"/>
<path d="M218.14 44.002C218.14 41.5165 207.542 42.86 204.322 42.1882L200.566 43.9348C177.291 42.5241 166.425 44.2707 166.425 44.2707C152.541 42.7928 127.589 43.6661 122.357 44.6066C119.205 45.144 122.089 58.9825 126.046 58.9825C132.083 58.3779 161.797 53.4068 166.425 52.8694C167.029 52.8022 200.633 49.6449 200.633 49.6449C200.633 49.6449 201.975 49.6449 204.255 50.451C207.341 51.5259 211.969 51.2572 214.451 50.048C216.463 49.1075 218.14 46.5547 218.14 44.002Z" fill="#BB8161"/>
<path d="M207.609 43.8005C207.609 43.8005 210.962 44.0692 211.298 42.3226C211.566 40.8447 211.499 40.3073 204.389 42.7928C204.389 42.7928 204.523 43.8005 207.609 43.8005Z" fill="#BB8161"/>
<path d="M127.186 66.5736C128.46 58.8482 122.155 44.8082 122.155 44.8082C119.137 44.4051 115.985 44.2708 113.637 44.2708H105.186C102.771 44.2708 99.6854 44.4051 96.667 44.8082C96.667 44.8082 90.362 58.9154 91.6364 66.5736C92.8438 73.7615 94.856 84.3084 90.8315 111.784H109.411H127.991C123.966 84.3084 125.979 73.7615 127.186 66.5736Z" fill="#261008"/>
<path d="M115.045 36.4782H103.709C105.453 41.8524 103.844 44.2708 103.844 44.2708C103.844 44.2708 104.179 47.764 109.411 47.764C114.576 47.764 114.911 44.2708 114.911 44.2708C114.911 44.2708 113.301 41.8524 115.045 36.4782Z" fill="#A46745"/>
<path d="M121.015 20.8928C121.015 7.3902 115.783 4.30005 109.411 4.30005C102.972 4.30005 97.8071 7.3902 97.8071 20.8928C97.8071 25.4609 98.612 29.0213 99.8194 31.7755C102.502 37.8215 107.131 39.9711 109.411 39.9711C111.692 39.9711 116.32 37.8215 119.003 31.7755C120.21 29.0213 121.015 25.4609 121.015 20.8928Z" fill="#BB8161"/>
<path d="M112.698 34.4627C112.698 34.4627 111.222 35.2016 109.411 35.2016C107.6 35.2016 106.125 34.4627 106.125 34.4627C106.125 34.2611 107.198 33.0519 107.868 32.9848C108.271 32.9176 109.411 33.3207 109.411 33.3207C109.411 33.3207 110.484 32.9176 110.954 32.9848C111.625 33.0519 112.698 34.4627 112.698 34.4627Z" fill="#D6876B"/>
<path d="M112.698 34.4627C112.698 34.4627 111.222 35.8063 109.411 35.8063C107.6 35.8063 106.125 34.4627 106.125 34.4627C106.125 34.4627 106.46 34.0596 108.405 33.9253C108.74 33.9253 109.143 34.194 109.411 34.194C109.679 34.194 110.015 33.9253 110.283 33.9253C112.295 34.0596 112.698 34.4627 112.698 34.4627Z" fill="#CC785E"/>
<path d="M121.484 21.4302C121.484 7.92762 117.795 4.30005 109.411 4.30005C101.027 4.30005 97.3374 7.9948 97.3374 21.4302C97.3374 21.4302 115.246 17.534 115.246 12.63C115.246 17.6011 121.484 21.4302 121.484 21.4302Z" fill="#261008"/>
<path d="M96.6671 25.6624C97.2708 29.3572 98.0756 29.4915 99.2159 29.29L98.0086 21.2959C96.8683 21.4974 95.9963 21.9677 96.6671 25.6624Z" fill="#BB8161"/>
<path d="M120.814 21.2959L119.606 29.29C120.747 29.4915 121.485 29.29 122.155 25.6624C122.826 21.9677 121.954 21.4974 120.814 21.2959Z" fill="#BB8161"/>
<path d="M98.6789 22.035C98.6118 21.6319 98.6118 21.2961 98.6118 20.9602C98.6118 20.5571 98.6789 20.2884 98.6789 20.2884L97.3374 20.8258C97.3374 21.0274 97.3374 21.2289 97.3374 21.4304C97.3374 21.4304 97.4715 21.3632 97.7398 21.2961C97.7398 21.2961 97.7399 21.2961 97.6728 21.2961C97.874 21.632 98.0752 22.1022 98.3435 22.8411C98.3435 22.8411 98.8801 23.2442 98.6789 22.035Z" fill="#71381C"/>
<path d="M120.143 21.0274C120.143 21.2961 120.143 21.6991 120.076 22.035C119.875 23.2442 120.411 22.8411 120.411 22.8411C120.613 22.1022 120.881 21.632 121.082 21.2961C121.35 21.3632 121.484 21.4304 121.484 21.4304C121.484 21.2289 121.484 21.0274 121.484 20.8258L120.143 20.2884C120.076 20.2884 120.143 20.5571 120.143 21.0274Z" fill="#71381C"/>
<path d="M123.364 240.16C120.681 239.488 114.308 234.315 113.436 233.912C111.961 233.173 109.747 232.501 109.747 230.15C109.747 228.471 110.016 226.858 109.882 225.784C109.479 220.208 107.131 209.46 106.662 202.675C106.595 201.13 106.528 199.517 106.461 197.838C106.394 191.187 120.01 195.218 119.741 197.636C118.937 207.31 117.058 224.104 116.321 227.53C116.321 227.53 126.248 234.517 125.912 237.069C125.845 238.547 126.046 240.831 123.364 240.16Z" fill="#BB8161"/>
<path d="M108.137 176.072C106.997 183.731 106.527 191.12 106.594 197.771C108.808 196.964 117.863 196.897 119.875 197.569C120.076 195.151 120.21 193.203 120.277 191.993C120.479 185.947 120.479 176.543 120.479 176.543C120.948 171.101 130.875 133.549 130.137 125.354C129.4 117.158 127.991 111.784 127.991 111.784H119.271C117.527 117.158 108.07 115.949 107.131 121.39C107.667 133.28 108.472 151.15 108.07 160.219C107.801 165.593 108.137 176.072 108.137 176.072Z" fill="#261008"/>
<path d="M88.9537 131.4C82.2462 132.34 77.0144 132.676 69.7032 133.281C68.563 135.296 67.691 144.298 68.0264 146.38C63.9348 147.119 43.4771 152.426 43.4771 141.342C43.4771 125.085 92.5086 112.993 90.8317 111.717C90.8317 111.717 111.625 122.465 101.027 128.511C101.027 128.511 95.6611 130.526 88.9537 131.4Z" fill="#261008"/>
<path d="M60.7822 134.96C60.7822 134.96 67.4226 133.079 73.3923 131.735C73.3252 131.802 69.2336 131.131 60.7822 134.96Z" fill="#261008"/>
<path d="M108.338 147.656C108.204 144.902 108.473 134.019 108.674 133.012C109.009 130.593 108.07 128.712 105.79 128.108C104.046 127.637 102.302 127.973 101.296 128.444C94.9905 131.131 79.6975 129.854 69.7034 132.676C68.1606 133.146 67.2887 146.649 68.0265 146.38C81.2402 141.812 96.8015 136.841 101.698 135.161C101.698 135.161 102.167 149.537 104.716 149.672C106.259 149.806 108.473 150.411 108.338 147.656Z" fill="#A46745"/>
</svg>
