<svg width="331" height="209" viewBox="0 0 331 209" fill="none" xmlns="http://www.w3.org/2000/svg">
<path d="M152.931 203.743C156.461 201.553 166.211 201.637 166.043 199.53C164.782 182.005 166.295 155.716 166.295 155.716C165.034 138.275 155.957 104.571 157.386 97.999C158.815 91.5111 172.179 92.8593 172.431 99.5157C173.271 107.352 174.28 111.059 175.121 119.148C176.381 129.175 177.894 150.239 177.054 156.053C176.97 156.811 173.019 200.457 172.347 203.069C171.59 206.018 169.741 205.26 163.774 205.26C158.394 205.176 149.653 205.681 152.931 203.743Z" fill="#A46745"/>
<path d="M330.195 9.52784C329.522 12.8982 314.898 12.2241 312.46 13.4037C311.283 13.9935 310.191 15.8472 307.249 16.1C303.383 16.437 301.113 13.4037 299.768 13.6565C292.792 14.5833 273.712 19.5546 265.307 20.5657C263.374 20.8185 260.937 20.987 258.835 21.1555C250.514 21.6611 254.213 4.38807 257.238 4.55658C269.342 4.97788 299.096 4.89363 303.467 5.5677C303.467 5.5677 316.915 5.31492 320.025 5.5677C321.958 5.48344 330.867 6.1575 330.195 9.52784Z" fill="#A46745"/>
<path d="M231.603 21.1557C241.269 21.8298 250.514 21.7455 258.835 20.9872C257.659 18.2909 256.65 6.91601 257.238 4.38826C254.213 4.38826 230.762 2.78736 230.762 2.78736C223.366 2.28181 177.978 -1.17279 166.295 1.69199C162.429 2.61884 160.412 3.2929 157.302 4.55678C152.595 6.49472 156.881 32.7834 163.774 33.3732C178.482 31.5195 205.211 22.8409 211.935 21.577C218.659 20.2289 231.603 21.1557 231.603 21.1557Z" fill="#261008"/>
<path d="M0.966583 9.86521C1.89114 6.49487 16.432 8.43281 18.9535 7.50597C20.2143 7.00042 21.4751 5.231 24.3328 5.231C28.1991 5.231 30.2164 8.34856 31.5612 8.34856C38.5374 8.01152 58.0373 4.55694 66.5265 4.30416C68.4596 4.2199 70.8971 4.2199 72.9984 4.30416C81.3195 4.47268 76.1923 21.4086 73.2505 20.9873C61.2312 19.5549 31.5612 17.1957 27.2746 16.1846C27.2746 16.1846 13.9105 15.342 10.7165 14.8365C8.86739 14.5837 0.0420204 13.1513 0.966583 9.86521Z" fill="#BB8161"/>
<path d="M100.148 6.32644C90.5657 4.89404 81.3201 4.13572 72.999 4.21998C74.0076 7.00051 74.0076 18.4597 73.1671 20.9032C76.193 21.1559 99.3911 24.6948 99.3911 24.6948C105.191 25.5374 132.171 28.4864 150.998 30.1716C155.873 30.5929 159.572 31.2669 163.606 31.6882C167.136 31.4355 170.162 30.3401 172.684 29.666C177.643 28.4864 174.617 0.849641 170.498 1.10242C152.679 2.61907 126.54 6.83199 119.815 7.59031C113.007 8.34864 100.148 6.32644 100.148 6.32644Z" fill="#261008"/>
<path d="M173.609 34.6371C173.609 34.6371 179.408 28.4862 181.173 20.9872C182.602 14.9206 180.333 8.43267 178.988 6.24195C176.551 2.45032 171.928 1.18645 166.885 1.18645C154.781 1.18645 150.831 7.00029 147.721 12.0558C144.527 17.2798 142.678 23.7677 142.258 29.3288C142.174 30.8454 153.016 34.8056 158.732 35.3954C164.447 35.9852 173.609 34.6371 173.609 34.6371Z" fill="#261008"/>
<path d="M141.164 90.7532C140.828 101.117 149.401 103.729 155.032 114.767C155.705 116.115 162.093 119.907 165.455 119.991C169.153 120.075 172.935 119.485 175.793 116.452C177.978 114.093 182.349 106.762 178.735 87.3829C177.642 78.3672 168.649 44.6638 173.608 34.6371C173.608 34.6371 162.093 35.7324 155.369 34.0472C148.644 32.3621 142.509 28.739 142.509 28.739C140.155 60.1674 146.375 72.8904 144.862 83.2542C144.862 83.1699 141.248 87.8041 141.164 90.7532Z" fill="#261008"/>
<path d="M157.638 119.233C157.638 119.233 160.328 126.732 162.009 133.472L173.272 134.231C171.086 127.49 172.683 118.39 172.683 118.39C162.177 119.485 157.806 115.862 155.033 114.767L157.638 119.233Z" fill="#A46745"/>
<path d="M166.884 156.644C169.573 161.278 174.364 161.109 177.222 160.688C186.047 159.424 188.653 155.043 191.175 149.06C194.453 141.14 174.869 129.512 171.086 128.754C161.252 126.732 152.511 137.938 150.158 142.994C147.636 148.639 150.158 147.965 152.511 148.723C152.595 148.723 152.847 149.145 152.847 149.145C153.604 149.482 154.696 149.903 155.537 150.83C155.537 150.83 156.293 150.914 156.714 151.082C156.966 151.167 157.134 151.251 157.134 151.588C157.05 152.515 157.05 153.442 157.218 153.863C157.89 155.464 165.623 154.537 166.884 156.644Z" fill="#BB8161"/>
<path d="M155.957 147.122C155.957 147.122 155.368 147.543 154.36 150.071C154.36 150.492 154.528 151.166 155.368 150.998C156.041 150.914 155.453 149.06 155.957 147.122Z" fill="#D6876B"/>
<path d="M155.957 147.122C155.957 147.122 154.444 147.122 152.847 149.229C152.763 149.566 152.931 149.987 153.015 150.071C153.688 150.661 154.276 150.071 154.276 150.071C155.453 147.543 155.957 147.122 155.957 147.122Z" fill="#CC785E"/>
<path d="M192.772 149.06C196.722 139.37 188.149 120.834 166.379 127.153C164.951 127.574 162.765 129.091 163.774 132.967C164.446 135.747 165.959 138.107 165.959 138.107C166.379 138.781 166.884 139.539 167.472 140.297C168.06 141.14 173.104 142.488 172.851 143.583C170.414 153.694 173.776 159.761 176.298 160.772C182.853 162.205 188.485 159.34 192.772 149.06Z" fill="#261008"/>
<path d="M169.49 137.601C164.615 137.264 163.69 138.949 162.85 141.646L170.078 142.994L173.272 142.825C174.112 140.129 174.365 137.938 169.49 137.601Z" fill="#BB8161"/>
<path d="M171.507 144.173C172.347 144.341 173.02 144.678 173.608 144.931C174.448 145.268 174.869 145.605 174.869 145.605L175.037 142.404C174.617 142.235 174.196 142.066 173.776 141.898C173.776 141.898 173.776 142.235 173.692 142.825V142.741C172.936 142.825 171.759 142.909 170.162 142.825C170.162 142.741 168.901 143.583 171.507 144.173Z" fill="#261008"/>
<path d="M155.453 206.693C158.983 204.502 168.733 204.586 168.565 202.48C167.304 184.954 166.043 158.665 166.043 158.665C164.783 141.224 155.705 107.521 157.134 100.948C158.563 94.4605 171.927 95.8087 172.179 102.465C173.02 110.301 174.028 114.008 174.869 122.097C176.13 132.124 177.643 153.189 176.802 159.003C176.718 159.761 175.541 203.407 174.869 206.019C174.112 208.968 172.263 208.209 166.296 208.209C160.916 208.125 152.175 208.631 155.453 206.693Z" fill="#BB8161"/>
</svg>
