<svg width="51" height="241" viewBox="0 0 51 241" fill="none" xmlns="http://www.w3.org/2000/svg">
<path d="M29.9784 140.836C29.9784 140.836 32.7536 135.834 33.4804 131.425C35.0662 122.278 29.8462 116.421 29.8462 116.421C29.8462 116.421 9.56094 111.289 8.90018 115.961C7.57866 124.845 6.25714 131.82 5.46423 136.163C4.93562 139.059 18.5473 143.073 18.5473 143.073L29.9784 140.836Z" fill="#261008"/>
<path d="M0.705786 184.662C0.441482 192.757 7.18123 194.797 11.6083 203.417C12.1369 204.47 17.1587 207.431 19.8017 207.497C22.7091 207.563 25.6825 207.102 27.9291 204.733C29.647 202.891 33.083 197.166 30.2417 182.03C29.3827 174.989 26.079 148.666 29.9774 140.835C29.9774 140.835 20.925 141.691 15.639 140.375C10.3529 139.059 5.52933 136.229 5.52933 136.229C3.67921 160.775 4.86857 170.711 3.6792 178.806C3.61313 178.74 0.771862 182.359 0.705786 184.662Z" fill="#261008"/>
<path d="M13.6572 202.496C13.6572 202.496 15.7717 208.353 17.0932 213.617L25.9473 214.209C24.2294 208.945 25.4848 206.51 25.4848 206.51C17.2253 207.431 13.6572 202.496 13.6572 202.496Z" fill="#A46745"/>
<path d="M17.0271 225.462C15.177 229.213 17.4236 232.24 18.9433 233.951C23.6347 239.084 27.6654 238.953 32.6211 237.9C39.2286 236.584 38.1714 218.816 36.9821 215.986C33.9426 208.748 22.8418 207.892 18.5469 208.616C13.7894 209.471 15.3092 210.853 15.8378 212.696C15.8378 212.762 15.7056 213.091 15.7056 213.091C15.8378 213.749 16.036 214.604 15.7717 215.591C15.7717 215.591 16.036 216.118 16.1681 216.447C16.2342 216.644 16.2342 216.776 16.036 216.908C15.3752 217.302 14.7805 217.631 14.5823 217.96C13.8555 219.079 17.8861 223.751 17.0271 225.462Z" fill="#BB8161"/>
<path d="M18.4147 214.209C18.4147 214.209 17.886 214.012 15.7716 214.472C15.5073 214.67 15.1109 214.999 15.6395 215.525C16.0359 215.92 16.961 214.736 18.4147 214.209Z" fill="#D6876B"/>
<path d="M18.4147 214.209C18.4147 214.209 17.7539 213.222 15.7056 213.156C15.4413 213.222 15.2431 213.551 15.2431 213.683C15.1109 214.341 15.7717 214.538 15.7717 214.538C17.8861 214.012 18.4147 214.209 18.4147 214.209Z" fill="#CC785E"/>
<path d="M33.2813 238.952C41.3426 237.307 49.6682 223.619 35.9244 212.301C34.9993 211.511 33.0831 210.787 31.0347 213.156C29.515 214.801 28.7221 216.841 28.7221 216.841C28.4578 217.434 28.1935 218.092 27.9292 218.816C27.6649 219.605 28.9864 223.422 28.1935 223.685C20.5947 226.515 18.0839 231.319 18.4803 233.425C20.3965 238.228 24.7575 240.663 33.2813 238.952Z" fill="#261008"/>
<path d="M30.5064 218.816C28.5902 215.525 27.0705 215.657 24.9561 216.249L27.2687 221.514L28.7885 223.488C30.9029 222.896 32.4226 222.106 30.5064 218.816Z" fill="#BB8161"/>
<path d="M27.1368 222.962C27.4011 223.554 27.5333 224.146 27.5994 224.673C27.7315 225.331 27.7315 225.791 27.7315 225.791L29.912 224.475C29.8459 224.146 29.7799 223.817 29.7138 223.422C29.7138 223.422 29.4495 223.554 29.053 223.817C29.053 223.817 29.1191 223.817 29.1191 223.751C28.7227 223.291 28.128 222.567 27.5333 221.448C27.4672 221.514 26.41 221.053 27.1368 222.962Z" fill="#261008"/>
<path d="M44.845 231.582C45.1093 231.714 44.7129 232.832 43.92 234.149C43.1271 235.465 42.3341 236.32 42.0698 236.189C41.8055 236.057 42.202 235.136 42.9949 233.885C43.7878 232.635 44.5807 231.385 44.845 231.582Z" fill="#632B16"/>
<path d="M13.1292 238.492C14.3846 235.333 16.0365 229.937 16.0365 229.937C17.4902 225.659 19.8028 220.132 21.1244 216.249C23.5031 209.932 24.6264 205.391 25.4854 203.878C26.873 201.443 28.1945 197.692 27.0051 195.191C25.0889 191.44 19.4725 188.808 16.6312 192.493C12.5345 197.889 6.98411 225.791 6.85196 232.24C6.78588 234.938 7.18234 236.781 7.64487 237.439C8.1074 238.031 9.82538 238.821 12.138 238.689C12.4023 238.623 12.7327 238.558 13.1292 238.492Z" fill="#BB8161"/>
<path d="M40.0879 234.214C25.5512 233.951 21.0581 232.635 17.2917 231.582C13.5254 230.529 8.90008 230.463 8.17324 230.398C7.90894 230.858 7.71072 231.319 7.57857 231.714C6.52135 234.214 6.9178 235.794 7.18211 236.518C7.18211 236.518 7.97502 238.887 10.2216 239.61C14.5826 240.927 41.2773 239.676 41.2773 239.676L40.0879 234.214Z" fill="#BB8161"/>
<path d="M40.0881 234.215C39.9559 234.28 39.8238 235.07 40.881 239.677C40.881 239.677 42.1365 239.94 44.5152 239.94C49.0744 239.94 51.8496 232.175 49.537 229.542C48.3476 228.226 48.2154 231.122 47.4225 231.517C46.0349 232.175 44.5152 231.911 43.6562 231.846L40.0881 234.215Z" fill="#BB8161"/>
<path d="M46.8944 232.438C46.8944 232.438 48.5463 228.489 47.423 228.029C46.1015 227.437 46.4319 229.477 45.9694 230.135C45.5068 230.793 44.9782 231.319 43.6567 231.846C43.5906 231.911 43.8549 232.833 46.8944 232.438Z" fill="#BB8161"/>
<path d="M21.3884 0.733865C24.0315 1.39193 22.776 12.8422 23.5689 14.7506C23.9654 15.7377 25.4191 16.659 25.4191 18.9622C25.4851 21.9893 23.0403 23.6344 23.1064 24.6873C23.5029 30.1493 26.5423 45.3505 26.8727 51.9311C26.9388 53.4447 27.0049 55.3531 27.0049 56.9982C27.0049 63.513 13.6575 59.8279 13.9218 57.4589C14.8469 47.9827 16.1024 24.7531 16.8292 21.397C16.8292 21.397 17.2256 10.9338 17.556 8.4332C17.8203 6.98546 18.7454 0.00999624 21.3884 0.733865Z" fill="#BB8161"/>
<path d="M25.9475 78.3196C26.8726 70.7518 27.269 63.5789 27.0708 56.9983C24.8903 57.788 15.97 58.0512 13.9878 57.459C13.8556 59.828 11.4769 78.0563 11.4769 78.0563C10.75 83.8473 6.05866 117.803 7.57841 128.398C7.84271 131.162 8.37132 133.531 8.89993 135.505C9.95714 139.388 31.4318 137.15 32.2908 131.82C31.564 120.238 26.0136 98.9827 25.2868 93.6524C24.626 88.3879 25.9475 78.3196 25.9475 78.3196Z" fill="#261008"/>
</svg>
