<svg width="237" height="241" viewBox="0 0 237 241" fill="none" xmlns="http://www.w3.org/2000/svg">
<path d="M236.236 63.886C235.656 61.1949 217.61 67.8136 217.61 67.8136C192.679 71.5958 181.373 76.1779 181.373 76.1779C166.371 77.7781 139.265 84.3968 133.975 86.5788C128.684 88.7608 131.8 99.9617 137.526 99.1617C143.251 98.3616 148.18 96.9797 153.76 95.7432C159.341 94.5067 178.474 86.9425 183.257 85.3423C183.91 85.1241 218.842 73.8505 218.842 73.8505C218.842 73.8505 220.292 73.5596 222.828 73.8505C226.307 74.3596 236.816 66.5772 236.236 63.886Z" fill="#A46745"/>
<path d="M81.5746 104.689C80.0527 103.889 75.7042 98.8707 68.4567 97.0524C64.1082 95.9614 58.6002 95.525 53.5994 95.3795C46.4969 95.1613 46.207 123.818 50.9903 125.927C58.7451 129.346 74.3996 130.291 79.183 130.364C82.4443 130.364 86.9377 115.527 86.9377 115.527C86.9377 115.527 83.0966 105.489 81.5746 104.689Z" fill="#261008"/>
<path d="M18.4493 78.5054C18.4493 78.5054 2.43243 73.7777 0.982939 81.5602C-0.539027 89.6336 33.5965 114.872 40.9889 120.109C48.4538 125.273 51.5702 127.018 68.8917 132.255C71.4283 128.255 70.1962 126.873 69.8338 113.708C69.4714 97.3433 18.4493 78.5054 18.4493 78.5054Z" fill="#261008"/>
<path d="M62.1521 1.11704C64.3263 3.15357 57.1513 13.6272 56.9339 15.9546C56.789 17.1184 57.7311 18.7912 56.5715 21.0459C55.0496 24.028 51.8607 24.3917 51.3534 25.4099C48.8892 30.9377 42.5839 42.3568 39.4675 49.0482C38.7428 50.5756 37.9456 52.1758 37.1483 53.7032C33.742 60.1037 22.9433 49.1937 24.3928 47.0117C30.1908 38.2837 44.5408 21.9187 46.9324 19.0094C46.9324 19.0094 52.8029 8.97223 54.3973 6.79024C55.4119 5.33557 59.9778 -0.919488 62.1521 1.11704Z" fill="#A46745"/>
<path d="M23.8857 75.8144C26.7847 72.5414 33.8147 60.0313 37.221 53.6308C34.7569 53.2671 26.06 48.5394 24.4655 46.9393C23.016 49.1213 -0.465744 74.9416 0.911273 82.724C1.85344 88.3972 9.89813 85.997 16.4933 82.5058C16.4208 82.5058 20.9867 79.0874 23.8857 75.8144Z" fill="#261008"/>
<path d="M77.5168 240.119C74.6178 239.464 63.6741 240.119 62.587 240.046C59.9779 239.973 57.4413 238.519 57.9487 236.046C58.311 234.155 59.2532 232.482 59.1083 231.318C58.5285 225.281 56.7891 207.171 56.2093 199.897C56.0643 198.224 55.9918 196.479 55.9194 194.661C55.7019 187.46 70.4868 191.533 70.2693 194.151C69.5446 204.625 66.863 229.354 66.1383 233.136C66.1383 233.136 84.0395 234.009 83.7496 236.7C83.6047 238.373 80.4158 240.846 77.5168 240.119Z" fill="#BB8161"/>
<path d="M57.9486 171.095C56.934 179.459 55.7019 187.387 55.9193 194.66C58.311 193.788 68.0951 193.497 70.2693 194.151C70.4143 191.533 73.7481 171.386 73.7481 171.386C74.5453 164.985 80.9956 127.455 79.3286 115.745C79.0387 112.763 78.459 110.072 77.8792 107.89C76.7196 103.598 53.1653 106.071 52.2231 111.963C53.0204 124.764 54.9772 144.402 56.0643 153.857C56.8615 160.403 57.9486 171.095 57.9486 171.095Z" fill="#261008"/>
<path d="M136.946 104.544C139.99 96.4703 137.598 90.8699 135.279 79.8872C134.844 78.6507 130.206 74.7231 127.379 74.2867C124.191 73.7776 120.784 74.1412 118.538 76.5414C116.436 78.287 113.247 82.5056 106.072 97.6341C104.043 101.853 89.1128 106.508 81.5755 104.616C81.5755 104.616 76.0674 110.653 76.0674 118.799C76.0674 124.836 79.1838 130.291 79.1838 130.291C111.145 129.782 122.958 123.891 130.641 110.29C130.641 110.362 135.497 108.471 136.946 104.544Z" fill="#261008"/>
<path d="M136.728 80.3962C136.728 80.3962 138.323 74.1412 141.729 69.3408L133.757 63.6676C132.38 69.6317 125.277 74.2139 125.277 74.2139C130.64 88.2514 135.714 85.1966 136.221 84.6875L136.728 80.3962Z" fill="#A46745"/>
<path d="M149.556 56.0308C152.093 52.1759 150.208 48.5392 148.759 46.43C144.41 40.0294 140.062 39.6658 134.481 39.9567C127.162 40.3931 125.495 60.0311 126.364 63.2313C128.539 71.6684 140.497 74.2868 145.28 74.1413C150.571 73.9959 149.121 72.2503 148.831 70.141C148.831 70.0683 149.049 69.7046 149.049 69.7046C149.049 68.9773 148.904 67.959 149.339 67.0135C149.339 67.0135 149.121 66.3589 149.049 65.9952C149.049 65.777 149.049 65.6315 149.266 65.4861C149.991 65.1951 150.716 64.9042 151.006 64.5405C152.02 63.5223 148.397 57.8491 149.556 56.0308Z" fill="#BB8161"/>
<path d="M146.295 68.1772C146.295 68.1772 146.802 68.4682 149.194 68.3227C149.484 68.1772 149.991 67.8136 149.484 67.159C149.194 66.6498 148.034 67.8136 146.295 68.1772Z" fill="#D6876B"/>
<path d="M146.295 68.1771C146.295 68.1771 146.875 69.3408 149.121 69.7772C149.411 69.7045 149.629 69.4136 149.701 69.3408C149.919 68.6135 149.266 68.3226 149.266 68.3226C146.875 68.3953 146.295 68.1771 146.295 68.1771Z" fill="#CC785E"/>
<path d="M133.975 38.7931C124.988 39.375 113.827 53.0489 127.017 67.5955C127.887 68.541 129.844 69.632 132.525 67.3773C134.409 65.7772 135.642 63.7406 135.642 63.7406C136.004 63.1588 136.366 62.4314 136.801 61.7041C137.236 60.904 136.366 56.4673 137.308 56.3218C146.005 54.4308 149.484 49.4849 149.339 47.1575C147.817 41.557 143.541 38.2113 133.975 38.7931Z" fill="#261008"/>
<path d="M133.902 61.2676C135.496 65.1952 137.163 65.2679 139.482 64.9043L137.743 58.7947L136.366 56.3945C134.119 56.6854 132.307 57.34 133.902 61.2676Z" fill="#BB8161"/>
<path d="M138.178 57.1945C138.033 56.4672 137.961 55.8126 137.961 55.3035C137.961 54.5034 138.033 54.067 138.033 54.067L135.497 55.158C135.497 55.5217 135.569 55.9581 135.569 56.3217C135.569 56.3217 135.859 56.249 136.294 56.0308H136.221C136.584 56.6127 137.091 57.4855 137.598 58.7947C137.598 58.7947 138.685 59.4493 138.178 57.1945Z" fill="#261008"/>
<path d="M35.4812 17.1186C33.6693 19.1551 43.0185 25.9193 45.0478 28.8286L49.3238 30.2105C66.6452 48.5393 76.5018 55.3035 76.5018 55.3035C86.3583 66.7226 106.651 84.615 111.507 87.7425C114.406 89.7063 123.828 77.7053 120.784 74.796C115.638 70.7957 113.391 70.3593 108.753 66.7226C104.549 62.8678 87.0106 51.4486 82.952 48.4666C82.3722 48.0302 53.5998 25.6283 53.5998 25.6283C53.5998 25.6283 52.5852 24.6101 51.3531 22.3554C49.6862 19.2278 45.845 16.0276 43.0185 15.082C40.5544 14.3547 37.293 15.1548 35.4812 17.1186Z" fill="#BB8161"/>
<path d="M43.2356 25.5555C43.2356 25.5555 40.7715 22.8644 39.2495 24.0281C37.945 24.9736 37.5826 25.4828 45.0475 28.8285C45.0475 28.8285 45.6998 27.9557 43.2356 25.5555Z" fill="#BB8161"/>
</svg>
