<svg width="304" height="209" viewBox="0 0 304 209" fill="none" xmlns="http://www.w3.org/2000/svg">
<path d="M138.98 4.66116C135.942 4.66116 137.541 17.2767 136.741 21.1092L138.82 25.6604C136.981 53.3666 141.938 65.4231 141.938 65.4231C140.099 81.951 138.1 113.809 139.22 120.037C140.259 126.265 153.052 125.546 153.531 119.159C154.011 112.851 153.771 107.182 153.691 100.874C153.691 94.5665 152.732 71.0123 152.172 65.503C152.092 64.7844 145.616 25.6604 145.616 25.6604C145.616 25.6604 145.696 24.0635 146.575 21.4286C147.855 17.7557 147.535 12.2464 146.176 9.29216C144.976 6.73713 141.938 4.66116 138.98 4.66116Z" fill="#A46745"/>
<path d="M137.94 17.2768C137.94 17.2768 138.26 13.2846 136.181 12.8854C134.422 12.566 133.783 12.6458 136.661 21.1094C136.661 21.1094 137.86 21.0295 137.94 17.2768Z" fill="#A46745"/>
<path d="M1.70016 204.912C4.97824 202.916 13.6931 201 17.5309 197.886C19.7695 196.049 24.2469 192.696 27.0453 192.616C31.6825 192.456 33.7613 195.011 35.0406 195.171C43.0358 196.289 64.2234 189.502 69.0206 189.342C76.9359 189.103 74.9371 204.353 72.0588 204.433C48.6326 205.311 36.7995 204.912 32.642 204.673C32.642 204.673 8.49616 208.425 5.45795 208.425C3.69899 208.585 -1.09819 206.669 1.70016 204.912Z" fill="#A46745"/>
<path d="M94.8462 188.863C85.6516 188.384 76.8568 188.544 68.9414 189.342C70.1407 191.897 71.1801 202.197 70.6204 204.593C73.4987 204.593 95.8056 206.269 95.8056 206.269C102.841 206.589 144.417 209.224 157.13 206.509C160.408 205.95 163.286 205.072 165.685 204.273C170.242 202.676 153.692 181.278 153.692 181.278C141.379 181.438 119.871 186.947 113.555 188.224C107.159 189.582 94.8462 188.863 94.8462 188.863Z" fill="#261008"/>
<path d="M136.421 177.206C136.421 177.206 133.303 183.354 132.183 188.624C130.344 197.167 134.342 202.277 137.94 204.832C142.977 208.585 162.006 209.703 162.006 204.433C162.006 193.574 165.204 187.985 166.163 182.795C166.803 179.282 150.333 174.411 150.333 174.411L136.421 177.206Z" fill="#261008"/>
<path d="M167.283 124.029C167.603 114.208 159.447 111.733 154.091 101.274C153.451 99.996 147.374 96.403 144.176 96.3231C140.658 96.2433 137.061 96.8022 134.342 99.6766C132.263 101.912 128.106 108.859 131.544 127.223C132.583 135.767 141.138 167.704 136.501 177.206C136.501 177.206 147.454 176.168 153.851 177.765C160.247 179.362 166.083 182.795 166.083 182.795C168.322 153.013 162.326 140.956 163.765 131.136C163.765 131.215 167.203 126.824 167.283 124.029Z" fill="#261008"/>
<path d="M151.612 97.0414C151.612 97.0414 149.054 89.9352 147.455 83.5476L136.741 82.829C138.82 89.2166 137.301 97.8398 137.301 97.8398C147.295 96.8018 151.453 100.235 154.091 101.273L151.612 97.0414Z" fill="#A46745"/>
<path d="M143.937 61.2709C142.898 56.3205 138.5 55.043 135.862 54.564C127.547 53.0469 123.789 56.1609 119.791 60.7919C114.434 66.9399 128.586 83.2283 131.784 85.0647C140.099 89.7756 151.293 82.4298 154.891 78.5174C158.808 74.2058 156.33 74.0461 154.491 72.6089C154.411 72.5291 154.331 72.1298 154.331 72.1298C153.771 71.5709 152.892 70.9322 152.412 69.8143C152.412 69.8143 151.692 69.495 151.453 69.2554C151.213 69.0957 151.133 69.0159 151.293 68.6965C151.612 67.8182 151.932 67.0996 151.932 66.6205C151.772 65.1035 144.417 63.5864 143.937 61.2709Z" fill="#BB8161"/>
<path d="M150.973 73.1681C150.973 73.1681 151.612 72.9286 153.371 71.0123C153.451 70.6929 153.611 69.9743 152.732 69.8945C152.012 69.8146 152.012 71.5712 150.973 73.1681Z" fill="#D6876B"/>
<path d="M150.973 73.1679C150.973 73.1679 152.332 73.6469 154.411 72.2097C154.65 71.8904 154.571 71.4911 154.491 71.4113C154.091 70.6927 153.371 71.0121 153.371 71.0121C151.612 72.9283 150.973 73.1679 150.973 73.1679Z" fill="#CC785E"/>
<path d="M118.352 60.3129C111.876 67.8183 113.955 87.0609 135.542 87.9392C136.981 88.019 139.38 87.3004 139.62 83.4679C139.78 80.7532 139.14 78.1981 139.14 78.1981C138.9 77.4795 138.74 76.6012 138.42 75.7229C138.101 74.7648 134.023 72.0501 134.583 71.1718C139.78 62.8679 138.58 56.3206 136.661 54.6439C131.225 51.5299 125.308 52.4082 118.352 60.3129Z" fill="#261008"/>
<path d="M135.941 77.6391C140.259 79.3956 141.618 78.1181 143.137 76.0422L136.981 72.6887L134.022 71.8902C132.503 73.9662 131.624 75.8825 135.941 77.6391Z" fill="#BB8161"/>
<path d="M136.101 71.1719C135.381 70.7727 134.821 70.2936 134.422 69.8944C133.782 69.3355 133.462 68.8564 133.462 68.8564L132.343 71.7308C132.663 72.0502 132.982 72.2897 133.302 72.6091C133.302 72.6091 133.462 72.2897 133.622 71.8107V71.8905C134.342 72.0502 135.461 72.2897 136.82 72.9285C136.9 72.8486 138.259 72.5293 136.101 71.1719Z" fill="#261008"/>
<path d="M302.324 198.205C298.886 199.882 290.011 200.999 285.854 203.714C283.455 205.311 278.658 208.265 275.86 208.106C271.222 207.866 269.383 205.071 268.104 204.832C260.269 202.996 238.522 207.786 233.724 207.547C225.809 207.068 229.167 192.057 232.045 192.216C255.472 193.414 267.225 194.931 271.302 195.57C271.302 195.57 295.688 193.973 298.726 194.292C300.725 194.452 305.282 196.768 302.324 198.205Z" fill="#BB8161"/>
<path d="M208.139 205.711C217.254 207.068 226.049 207.627 233.964 207.547C233.005 204.912 232.925 194.612 233.644 192.217C230.766 191.977 208.699 188.305 208.699 188.305C201.663 187.267 160.567 180.879 147.695 182.476C144.337 182.795 141.459 183.274 138.98 183.913C134.263 185.111 148.814 207.867 148.814 207.867C161.047 208.825 182.954 205.311 189.43 204.593C195.907 203.874 208.139 205.711 208.139 205.711Z" fill="#261008"/>
<path d="M134.582 0.668793C131.544 0.668793 133.143 13.2843 132.344 17.1168L134.423 21.668C132.584 49.3742 137.541 61.4308 137.541 61.4308C135.702 77.9587 133.703 109.817 134.822 116.045C135.862 122.273 148.654 121.554 149.134 115.166C149.614 108.859 149.374 103.19 149.294 96.8819C149.294 90.5742 148.334 67.0199 147.775 61.5106C147.695 60.792 141.219 21.668 141.219 21.668C141.219 21.668 141.298 20.0711 142.178 17.4362C143.457 13.7634 143.137 8.25406 141.778 5.29979C140.579 2.74476 137.541 0.668793 134.582 0.668793Z" fill="#BB8161"/>
<path d="M133.543 13.2845C133.543 13.2845 133.863 9.29221 131.784 8.89299C130.025 8.57361 129.385 8.65346 132.264 17.117C132.264 17.117 133.463 17.0372 133.543 13.2845Z" fill="#BB8161"/>
</svg>
