<svg width="110" height="18" viewBox="0 0 110 18" fill="none" xmlns="http://www.w3.org/2000/svg">
<path d="M8.38585 0.690984C8.68521 -0.230327 9.98861 -0.230328 10.288 0.690982L11.8066 5.36474C11.9404 5.77677 12.3244 6.05573 12.7576 6.05573H17.6719C18.6406 6.05573 19.0434 7.29534 18.2597 7.86474L14.284 10.7533C13.9335 11.0079 13.7868 11.4593 13.9207 11.8713L15.4393 16.5451C15.7386 17.4664 14.6841 18.2325 13.9004 17.6631L9.9247 14.7746C9.57421 14.5199 9.09961 14.5199 8.74913 14.7746L4.77339 17.6631C3.98967 18.2325 2.93519 17.4664 3.23454 16.5451L4.75314 11.8713C4.88702 11.4593 4.74036 11.0079 4.38987 10.7533L0.414132 7.86475C-0.369582 7.29534 0.0331932 6.05573 1.00192 6.05573H5.9162C6.34943 6.05573 6.73338 5.77677 6.86726 5.36474L8.38585 0.690984Z" fill="#531C0C"/>
<path d="M31.0597 0.690984C31.359 -0.230327 32.6624 -0.230328 32.9618 0.690982L34.4804 5.36474C34.6143 5.77677 34.9982 6.05573 35.4314 6.05573H40.3457C41.3145 6.05573 41.7172 7.29534 40.9335 7.86474L36.9578 10.7533C36.6073 11.0079 36.4606 11.4593 36.5945 11.8713L38.1131 16.5451C38.4125 17.4664 37.358 18.2325 36.5743 17.6631L32.5985 14.7746C32.248 14.5199 31.7734 14.5199 31.423 14.7746L27.4472 17.6631C26.6635 18.2325 25.609 17.4664 25.9084 16.5451L27.427 11.8713C27.5608 11.4593 27.4142 11.0079 27.0637 10.7533L23.088 7.86475C22.3042 7.29534 22.707 6.05573 23.6757 6.05573H28.59C29.0233 6.05573 29.4072 5.77677 29.5411 5.36474L31.0597 0.690984Z" fill="#531C0C"/>
<path d="M53.7335 0.690984C54.0329 -0.230327 55.3363 -0.230328 55.6356 0.690982L57.1542 5.36474C57.2881 5.77677 57.6721 6.05573 58.1053 6.05573H63.0196C63.9883 6.05573 64.3911 7.29534 63.6073 7.86474L59.6316 10.7533C59.2811 11.0079 59.1345 11.4593 59.2683 11.8713L60.7869 16.5451C61.0863 17.4664 60.0318 18.2325 59.2481 17.6631L55.2724 14.7746C54.9219 14.5199 54.4473 14.5199 54.0968 14.7746L50.121 17.6631C49.3373 18.2325 48.2828 17.4664 48.5822 16.5451L50.1008 11.8713C50.2347 11.4593 50.088 11.0079 49.7375 10.7533L45.7618 7.86475C44.9781 7.29534 45.3808 6.05573 46.3496 6.05573H51.2639C51.6971 6.05573 52.081 5.77677 52.2149 5.36474L53.7335 0.690984Z" fill="#531C0C"/>
<path d="M76.4073 0.690984C76.7067 -0.230327 78.0101 -0.230328 78.3095 0.690982L79.828 5.36474C79.9619 5.77677 80.3459 6.05573 80.7791 6.05573H85.6934C86.6621 6.05573 87.0649 7.29534 86.2812 7.86474L82.3054 10.7533C81.9549 11.0079 81.8083 11.4593 81.9422 11.8713L83.4608 16.5451C83.7601 17.4664 82.7056 18.2325 81.9219 17.6631L77.9462 14.7746C77.5957 14.5199 77.1211 14.5199 76.7706 14.7746L72.7949 17.6631C72.0112 18.2325 70.9567 17.4664 71.256 16.5451L72.7746 11.8713C72.9085 11.4593 72.7618 11.0079 72.4114 10.7533L68.4356 7.86475C67.6519 7.29534 68.0547 6.05573 69.0234 6.05573H73.9377C74.3709 6.05573 74.7549 5.77677 74.8887 5.36474L76.4073 0.690984Z" fill="#531C0C"/>
<path d="M99.0812 0.690984C99.3805 -0.230327 100.684 -0.230328 100.983 0.690982L102.502 5.36474C102.636 5.77677 103.02 6.05573 103.453 6.05573H108.367C109.336 6.05573 109.739 7.29534 108.955 7.86474L104.979 10.7533C104.629 11.0079 104.482 11.4593 104.616 11.8713L106.135 16.5451C106.434 17.4664 105.379 18.2325 104.596 17.6631L100.62 14.7746C100.27 14.5199 99.7949 14.5199 99.4444 14.7746L95.4687 17.6631C94.685 18.2325 93.6305 17.4664 93.9299 16.5451L95.4485 11.8713C95.5823 11.4593 95.4357 11.0079 95.0852 10.7533L91.1094 7.86475C90.3257 7.29534 90.7285 6.05573 91.6972 6.05573H96.6115C97.0447 6.05573 97.4287 5.77677 97.5626 5.36474L99.0812 0.690984Z" fill="#531C0C"/>
</svg>
