<svg width="32" height="32" viewBox="0 0 32 32" fill="none" xmlns="http://www.w3.org/2000/svg">
<path d="M0 16C0 7.16344 7.16344 0 16 0C24.8366 0 32 7.16344 32 16C32 24.8366 24.8366 32 16 32C7.16344 32 0 24.8366 0 16Z" fill="white" fill-opacity="0.5"/>
<path d="M16.4667 24C16.1597 24 15.8528 24 15.5374 23.9946C15.4068 23.9794 15.2841 23.9743 15.1627 23.959C14.9437 23.9315 14.7232 23.9087 14.5075 23.864C14.2182 23.8041 13.931 23.7319 13.6463 23.6528C13.3228 23.5629 13.011 23.4392 12.7053 23.2997C12.3556 23.1402 12.0131 22.9669 11.6946 22.7517C11.4447 22.5829 11.2005 22.4046 10.9627 22.2191C10.782 22.0783 10.6063 21.9286 10.4444 21.7667C10.2286 21.5508 10.0223 21.3245 9.82335 21.093C9.67715 20.9228 9.54056 20.7428 9.41539 20.5566C9.26367 20.3309 9.11968 20.0989 8.9886 19.8608C8.85344 19.6151 8.72689 19.3635 8.61636 19.106C8.47314 18.7723 8.35061 18.4296 8.26684 18.0752C8.20561 17.8162 8.14286 17.557 8.096 17.2952C8.06046 17.0967 8.04933 16.8938 8.0257 16.693C8.02405 16.679 8.00888 16.6665 8 16.6533C8 16.6474 8 16.6415 8.00532 16.6291C8.00709 16.5795 8.00355 16.5364 8 16.4933C8 16.1686 8 15.8439 8.00532 15.5109C8.00709 15.4595 8.00355 15.4164 8 15.3733C8 15.3674 8 15.3615 8.00522 15.3495C8.01582 15.3343 8.02502 15.3256 8.026 15.3161C8.03589 15.2207 8.04262 15.1249 8.05376 15.0297C8.07012 14.8897 8.0808 14.7482 8.10925 14.6106C8.16004 14.3649 8.21996 14.121 8.28029 13.8775C8.38542 13.4529 8.539 13.0446 8.72312 12.6493C8.92812 12.2092 9.16782 11.7882 9.45009 11.3908C9.66828 11.0837 9.90579 10.7935 10.1596 10.5166C10.2894 10.3751 10.4342 10.2471 10.5731 10.114C10.8028 9.89396 11.0515 9.69736 11.3083 9.50963C11.6003 9.29619 11.9036 9.1006 12.2247 8.93616C12.5025 8.79393 12.7863 8.66064 13.0767 8.54715C13.3667 8.43384 13.6657 8.34147 13.9652 8.25564C14.2842 8.16425 14.6099 8.09926 14.9411 8.06657C15.1254 8.04838 15.3099 8.03125 15.4942 8.01292C15.5075 8.0116 15.5203 8.00444 15.5333 8C15.8403 8 16.1472 8 16.4626 8.00544C16.5933 8.02057 16.716 8.02561 16.8374 8.04099C17.0543 8.06845 17.2726 8.0915 17.4862 8.13583C17.7777 8.1963 18.0672 8.26831 18.3542 8.3476C18.6779 8.43705 18.9894 8.56185 19.2956 8.70059C19.642 8.85752 19.9767 9.03549 20.2976 9.23873C20.7255 9.50971 21.1239 9.8204 21.4916 10.168C21.6742 10.3406 21.8466 10.5253 22.0117 10.7149C22.1782 10.906 22.332 11.1085 22.4879 11.3088C22.7035 11.5859 22.8843 11.8864 23.0502 12.1947C23.3114 12.68 23.5243 13.1869 23.6779 13.7167C23.7411 13.9347 23.7918 14.1568 23.8384 14.3791C23.8774 14.5648 23.9073 14.7529 23.9321 14.9411C23.9563 15.1247 23.9688 15.3098 23.9871 15.4942C23.9884 15.5075 23.9956 15.5203 24 15.5333C24 15.8403 24 16.1472 23.9946 16.4626C23.9794 16.5933 23.9744 16.716 23.959 16.8374C23.9315 17.0543 23.9081 17.2725 23.8643 17.4862C23.8048 17.7758 23.7361 18.0642 23.656 18.3488C23.5605 18.6884 23.431 19.0169 23.2827 19.3371C23.123 19.6819 22.9431 20.0161 22.7371 20.3357C22.471 20.7487 22.1688 21.1346 21.8319 21.4916C21.6595 21.6743 21.4747 21.8466 21.2852 22.0117C21.094 22.1782 20.8915 22.332 20.6912 22.4879C20.4141 22.7035 20.1136 22.8843 19.8053 23.0502C19.32 23.3114 18.8131 23.5243 18.2833 23.6779C18.0653 23.7411 17.8432 23.7918 17.6209 23.8384C17.4352 23.8774 17.2471 23.9073 17.0589 23.9321C16.8753 23.9563 16.6902 23.9688 16.5058 23.9871C16.4925 23.9884 16.4797 23.9956 16.4667 24ZM18.8658 12.5874C18.8658 12.5874 18.8655 12.5885 18.8663 12.5788C18.8491 12.5565 18.8312 12.5348 18.8149 12.5119C18.6857 12.3317 18.5754 12.141 18.4934 11.9344C18.4089 11.7216 18.3514 11.5024 18.3333 11.2736C18.3266 11.1887 18.32 11.1038 18.313 11.0153C18.1564 11.0153 17.9994 11.0153 17.8406 11.0129C17.8406 11.0129 17.8381 11.0109 17.8344 11.001C17.819 10.8561 17.8036 10.7112 17.7878 10.563C17.1934 10.563 16.5928 10.563 15.9867 10.563C15.9867 10.5919 15.9867 10.618 15.9867 10.6441C15.9867 13.0051 15.9864 15.3662 15.9871 17.7272C15.9871 17.9353 15.9352 18.1314 15.8474 18.3164C15.6918 18.6441 15.4486 18.8871 15.1173 19.0408C14.8028 19.1867 14.4779 19.2229 14.1422 19.1356C14.035 19.1078 13.9317 19.0649 13.8187 19.0256C13.808 19.0163 13.7974 19.0071 13.7864 18.9884C13.4375 18.4456 13.4051 17.8802 13.7564 17.342C14.1572 16.728 14.7464 16.5259 15.4616 16.7037C15.4616 16.0919 15.4616 15.4802 15.4616 14.8574C15.2877 14.8522 15.1184 14.8471 14.9472 14.8395C14.9472 14.8395 14.9448 14.8376 14.9465 14.8255C14.9465 14.6903 14.9465 14.5551 14.9465 14.4065C14.7947 14.3998 14.6461 14.3849 14.498 14.3887C14.3053 14.3938 14.1108 14.4 13.9211 14.4307C13.692 14.4678 13.4693 14.5357 13.2526 14.6246C12.8833 14.7759 12.5507 14.9824 12.2601 15.2549C12.1603 15.3485 12.0671 15.4497 11.976 15.5519C11.8285 15.7174 11.7062 15.901 11.5994 16.0954C11.448 16.3712 11.3332 16.6618 11.2704 16.9695C11.2335 17.1501 11.2194 17.3357 11.2014 17.5197C11.1931 17.6055 11.1956 17.693 11.201 17.7793C11.2111 17.9408 11.2147 18.1042 11.2429 18.2629C11.3077 18.6279 11.4293 18.9745 11.6135 19.2983C11.8087 19.6414 12.0538 19.9429 12.3539 20.1991C12.4059 20.2436 12.4649 20.2798 12.5204 20.3196C12.5204 20.3196 12.5202 20.3192 12.5209 20.3271C12.5288 20.3336 12.5366 20.3402 12.5483 20.3552C12.5789 20.3798 12.6094 20.4043 12.6429 20.4363C12.6515 20.4416 12.66 20.4469 12.6675 20.4527C12.6675 20.4527 12.6676 20.4515 12.6684 20.4607C12.8387 20.601 13.0019 20.7513 13.181 20.8792C13.462 21.08 13.776 21.2184 14.1081 21.314C14.3538 21.3849 14.6055 21.4255 14.8602 21.4383C15.1065 21.4506 15.3518 21.4307 15.5955 21.3877C15.9556 21.3241 16.2948 21.2049 16.6142 21.0269C16.9623 20.8329 17.2652 20.5852 17.5249 20.2828C17.6959 20.0836 17.8477 19.8706 17.9585 19.6334C18.0463 19.4457 18.1187 19.25 18.1856 19.0536C18.2777 18.7834 18.3163 18.5005 18.3176 18.2172C18.3232 17.0153 18.32 15.8133 18.32 14.6114C18.32 14.5861 18.32 14.5608 18.32 14.5215C19.0753 15.0404 19.8938 15.3077 20.7966 15.3079C20.7966 14.7014 20.7966 14.1068 20.7966 13.5143C20.6821 13.5026 20.5712 13.492 20.4605 13.4797C20.4001 13.4731 20.3401 13.4637 20.2727 13.4527C20.27 13.4485 20.2672 13.4443 20.2697 13.4298C20.2697 13.3054 20.2697 13.181 20.2697 13.0599C20.1655 13.049 20.0592 13.0377 19.9529 13.0267C19.7673 13.0074 19.5871 12.9633 19.4155 12.892C19.2686 12.8309 19.1274 12.7561 18.9826 12.6856C18.9826 12.6856 18.9795 12.683 18.9738 12.6747C18.9647 12.6727 18.9557 12.6708 18.938 12.6649C18.9224 12.6477 18.9068 12.6306 18.891 12.6051C18.8822 12.5993 18.8734 12.5935 18.8658 12.5874Z" fill="black"/>
<path d="M8 15.3794C8.00355 15.4164 8.00709 15.4595 8.00532 15.5046C8 15.4663 8 15.4259 8 15.3794Z" fill="white"/>
<path d="M8 16.4994C8.00355 16.5364 8.00709 16.5795 8.00532 16.6246C8 16.5863 8 16.5459 8 16.4994Z" fill="white"/>
<path d="M18.9795 12.683C18.9795 12.683 18.9826 12.6856 18.9802 12.6913C19.0455 12.7628 19.1116 12.8303 19.1812 12.8941C19.3846 13.0804 19.6171 13.2215 19.8735 13.3203C20.0004 13.3692 20.1339 13.4007 20.2644 13.44C20.2672 13.4443 20.27 13.4485 20.2764 13.4602C20.28 13.9287 20.28 14.3897 20.28 14.8546C19.8284 14.8539 19.3973 14.7868 18.9763 14.653C18.5561 14.5194 18.1667 14.323 17.8 14.0667C17.8 14.0873 17.8 14.0982 17.8 14.1091C17.7956 15.3656 17.7923 16.6221 17.7849 17.8785C17.7841 18.0135 17.7689 18.1502 17.7432 18.2827C17.6958 18.5275 17.6226 18.7647 17.5237 18.9953C17.3752 19.3418 17.1732 19.6525 16.9169 19.926C16.7925 20.0587 16.6559 20.1834 16.51 20.2918C16.338 20.4194 16.1555 20.5356 15.9674 20.6382C15.7368 20.764 15.488 20.8533 15.2299 20.9027C15.0184 20.9433 14.8026 20.9651 14.5878 20.9843C14.4833 20.9936 14.3758 20.9842 14.271 20.9719C14.0852 20.9503 13.8981 20.9306 13.7157 20.8908C13.4132 20.8248 13.1281 20.7089 12.8609 20.5504C12.7988 20.5136 12.7322 20.4843 12.6676 20.4515C12.6676 20.4515 12.6675 20.4527 12.6705 20.448C12.6623 20.4385 12.6511 20.4337 12.64 20.4289C12.6094 20.4043 12.5789 20.3798 12.5471 20.3461C12.5373 20.331 12.5287 20.3251 12.5202 20.3192C12.5202 20.3192 12.5204 20.3196 12.5229 20.3152C12.5102 20.2893 12.4965 20.2666 12.4794 20.2467C12.2814 20.0164 12.1251 19.7605 12.0002 19.4838C11.8433 19.1363 11.7458 18.7719 11.7244 18.3933C11.7104 18.1454 11.7243 17.8936 11.7512 17.6463C11.7771 17.4087 11.8461 17.1779 11.9326 16.9532C12.082 16.5648 12.2962 16.216 12.5784 15.9123C12.7129 15.7676 12.8628 15.6348 13.018 15.5123C13.2781 15.307 13.5678 15.1513 13.8806 15.0382C14.225 14.9137 14.5793 14.8475 14.9447 14.8376C14.9447 14.8376 14.9472 14.8395 14.9471 14.8468C14.947 15.3196 14.947 15.7851 14.947 16.2498C14.8247 16.2279 14.7104 16.1985 14.5945 16.1887C14.4121 16.1734 14.2322 16.1984 14.0569 16.2535C13.685 16.3703 13.3982 16.5979 13.2021 16.9319C13.0316 17.2224 12.967 17.5381 13.0118 17.8761C13.0394 18.0843 13.1052 18.2771 13.2143 18.4547C13.3564 18.686 13.5443 18.8711 13.7867 18.9978C13.7974 19.0071 13.808 19.0163 13.8229 19.0318C13.9223 19.1721 14.0407 19.2827 14.1766 19.3737C14.5154 19.6002 14.8876 19.6871 15.2886 19.6109C15.6945 19.5338 16.0152 19.3151 16.2512 18.9774C16.4015 18.7622 16.5025 18.5196 16.5037 18.2576C16.5134 16.0685 16.5156 13.8793 16.5199 11.6902C16.5203 11.4881 16.52 11.286 16.52 11.0838C16.52 11.0623 16.52 11.0408 16.52 11.0133C16.5533 11.0133 16.5794 11.0134 16.6056 11.0133C17.0164 11.0125 17.4272 11.0117 17.8381 11.0109C17.8381 11.0109 17.8406 11.0128 17.8405 11.0194C17.8403 11.0326 17.8389 11.0396 17.8404 11.0459C17.9007 11.2996 17.9823 11.5443 18.1115 11.7735C18.2697 12.0541 18.4759 12.2922 18.7205 12.4986C18.7635 12.5349 18.8169 12.5589 18.8655 12.5885C18.8655 12.5885 18.8658 12.5874 18.8624 12.5917C18.8697 12.6018 18.8804 12.6076 18.8911 12.6134C18.9068 12.6305 18.9224 12.6477 18.9451 12.6715C18.9613 12.6797 18.9704 12.6813 18.9795 12.683Z" fill="white"/>
<path d="M12.668 20.4561C12.7322 20.4843 12.7988 20.5136 12.8609 20.5504C13.1281 20.7089 13.4132 20.8248 13.7157 20.8908C13.8981 20.9306 14.0852 20.9503 14.271 20.9719C14.3758 20.9842 14.4833 20.9936 14.5878 20.9843C14.8026 20.9651 15.0184 20.9433 15.2299 20.9027C15.488 20.8533 15.7368 20.764 15.9674 20.6382C16.1555 20.5356 16.338 20.4194 16.51 20.2918C16.6559 20.1834 16.7925 20.0587 16.9169 19.926C17.1732 19.6525 17.3752 19.3418 17.5237 18.9953C17.6226 18.7647 17.6958 18.5275 17.7432 18.2827C17.7689 18.1502 17.7841 18.0135 17.7849 17.8785C17.7923 16.6221 17.7956 15.3656 17.8 14.1091C17.8 14.0982 17.8 14.0873 17.8 14.0667C18.1667 14.323 18.5561 14.5194 18.9763 14.653C19.3973 14.7868 19.8284 14.8539 20.28 14.8546C20.28 14.3897 20.28 13.9287 20.28 13.4616C20.3401 13.4637 20.4001 13.4731 20.4605 13.4797C20.5712 13.492 20.6821 13.5026 20.7966 13.5143C20.7966 14.1068 20.7966 14.7014 20.7966 15.3079C19.8938 15.3077 19.0753 15.0404 18.32 14.5215C18.32 14.5608 18.32 14.5861 18.32 14.6114C18.32 15.8133 18.3232 17.0153 18.3176 18.2172C18.3163 18.5005 18.2777 18.7834 18.1856 19.0536C18.1187 19.25 18.0463 19.4457 17.9585 19.6334C17.8477 19.8706 17.6959 20.0836 17.5249 20.2828C17.2652 20.5852 16.9623 20.8329 16.6142 21.0269C16.2948 21.2049 15.9556 21.3241 15.5955 21.3877C15.3518 21.4307 15.1065 21.4506 14.8602 21.4383C14.6055 21.4255 14.3538 21.3849 14.1081 21.314C13.776 21.2184 13.462 21.08 13.181 20.8792C13.0019 20.7513 12.8387 20.601 12.668 20.4561Z" fill="#FE2C55"/>
<path d="M17.8362 11.006C17.4272 11.0117 17.0164 11.0125 16.6056 11.0133C16.5794 11.0134 16.5533 11.0133 16.52 11.0133C16.52 11.0408 16.52 11.0623 16.52 11.0838C16.52 11.286 16.5203 11.4881 16.5199 11.6902C16.5156 13.8793 16.5134 16.0685 16.5037 18.2576C16.5025 18.5196 16.4015 18.7622 16.2512 18.9774C16.0152 19.3151 15.6945 19.5338 15.2886 19.6109C14.8876 19.6871 14.5154 19.6002 14.1766 19.3737C14.0407 19.2827 13.9223 19.1721 13.8268 19.0335C13.9317 19.0649 14.035 19.1078 14.1422 19.1356C14.4779 19.2229 14.8028 19.1867 15.1173 19.0408C15.4486 18.8871 15.6918 18.6441 15.8474 18.3164C15.9352 18.1314 15.9871 17.9353 15.9871 17.7272C15.9864 15.3662 15.9867 13.0051 15.9867 10.6441C15.9867 10.618 15.9867 10.5919 15.9867 10.563C16.5928 10.563 17.1934 10.563 17.7878 10.563C17.8036 10.7112 17.819 10.8561 17.8362 11.006Z" fill="#25F4EE"/>
<path d="M14.9456 14.8316C14.5793 14.8475 14.225 14.9137 13.8806 15.0382C13.5678 15.1513 13.2781 15.307 13.018 15.5123C12.8628 15.6348 12.7129 15.7676 12.5784 15.9123C12.2962 16.216 12.082 16.5648 11.9326 16.9532C11.8461 17.1779 11.7771 17.4087 11.7512 17.6463C11.7243 17.8936 11.7104 18.1454 11.7244 18.3933C11.7458 18.7719 11.8433 19.1363 12.0002 19.4838C12.1251 19.7605 12.2814 20.0164 12.4794 20.2467C12.4965 20.2666 12.5102 20.2893 12.5231 20.3152C12.4649 20.2798 12.4059 20.2436 12.3539 20.1991C12.0538 19.9429 11.8087 19.6414 11.6135 19.2983C11.4293 18.9745 11.3077 18.6279 11.2429 18.2629C11.2147 18.1042 11.2111 17.9408 11.201 17.7793C11.1956 17.693 11.1931 17.6055 11.2014 17.5197C11.2194 17.3357 11.2335 17.1501 11.2704 16.9695C11.3332 16.6618 11.448 16.3712 11.5994 16.0954C11.7062 15.901 11.8285 15.7174 11.976 15.5519C12.0671 15.4497 12.1603 15.3485 12.2601 15.2549C12.5507 14.9824 12.8833 14.7759 13.2526 14.6246C13.4693 14.5357 13.692 14.4678 13.9211 14.4307C14.1108 14.4 14.3053 14.3938 14.498 14.3887C14.6461 14.3849 14.7947 14.3998 14.9465 14.4065C14.9465 14.5551 14.9465 14.6903 14.9456 14.8316Z" fill="#25F4EE"/>
<path d="M13.7866 18.9931C13.5443 18.8711 13.3564 18.686 13.2143 18.4547C13.1052 18.2771 13.0394 18.0843 13.0118 17.8761C12.967 17.5381 13.0316 17.2224 13.2021 16.9319C13.3982 16.5979 13.685 16.3703 14.0569 16.2535C14.2322 16.1984 14.4121 16.1734 14.5945 16.1887C14.7104 16.1985 14.8247 16.2279 14.947 16.2498C14.947 15.7851 14.947 15.3196 14.9481 14.848C15.1184 14.8471 15.2877 14.8522 15.4616 14.8574C15.4616 15.4802 15.4616 16.0919 15.4616 16.7037C14.7464 16.5259 14.1572 16.728 13.7564 17.342C13.4051 17.8802 13.4375 18.4456 13.7866 18.9931Z" fill="#FE2C55"/>
<path d="M18.8659 12.5837C18.8169 12.5589 18.7635 12.5349 18.7205 12.4986C18.4759 12.2922 18.2697 12.0541 18.1115 11.7735C17.9823 11.5443 17.9007 11.2996 17.8404 11.0459C17.8389 11.0396 17.8403 11.0326 17.8414 11.0206C17.9994 11.0153 18.1564 11.0153 18.313 11.0153C18.32 11.1038 18.3266 11.1887 18.3333 11.2736C18.3514 11.5024 18.4089 11.7216 18.4934 11.9344C18.5754 12.141 18.6857 12.3317 18.8149 12.5119C18.8312 12.5348 18.8491 12.5565 18.8659 12.5837Z" fill="#FE2C55"/>
<path d="M20.2671 13.4349C20.1339 13.4007 20.0004 13.3692 19.8735 13.3203C19.6171 13.2215 19.3846 13.0804 19.1812 12.8941C19.1116 12.8303 19.0455 12.7628 18.9808 12.6922C19.1274 12.7561 19.2686 12.8309 19.4155 12.892C19.5871 12.9633 19.7673 13.0074 19.9529 13.0267C20.0592 13.0377 20.1655 13.049 20.2697 13.0599C20.2697 13.181 20.2697 13.3054 20.2671 13.4349Z" fill="#25F4EE"/>
<path d="M18.891 12.6092C18.8804 12.6076 18.8697 12.6018 18.8618 12.5918C18.8734 12.5935 18.8822 12.5993 18.891 12.6092Z" fill="#FE2C55"/>
<path d="M12.5206 20.3232C12.5288 20.3251 12.5373 20.331 12.5452 20.3418C12.5366 20.3401 12.5288 20.3336 12.5206 20.3232Z" fill="#25F4EE"/>
<path d="M12.6414 20.4326C12.6511 20.4337 12.6623 20.4385 12.671 20.4477C12.66 20.4469 12.6515 20.4416 12.6414 20.4326Z" fill="#FE2C55"/>
<path d="M18.9766 12.6788C18.9704 12.6813 18.9613 12.6797 18.9494 12.6735C18.9557 12.6708 18.9647 12.6727 18.9766 12.6788Z" fill="#25F4EE"/>
</svg>
