<svg width="40" height="40" viewBox="0 0 40 40" fill="none" xmlns="http://www.w3.org/2000/svg">
<rect width="40" height="40" rx="20" fill="white" fill-opacity="0.5"/>
<path d="M27.9648 15.9711C27.9648 16.1639 27.9648 16.3181 27.9648 16.5108C27.9648 21.8699 23.8552 28 16.3014 28C13.953 28 11.8004 27.3446 10 26.188C10.3131 26.2265 10.6262 26.2651 10.9785 26.2651C12.8963 26.2651 14.6575 25.6096 16.0665 24.5301C14.2661 24.4916 12.7397 23.3349 12.2309 21.7157C12.5049 21.7542 12.7397 21.7928 13.0137 21.7928C13.3659 21.7928 13.7573 21.7157 14.0704 21.6386C12.1918 21.253 10.7828 19.6337 10.7828 17.6675V17.6289C11.3307 17.9373 11.9961 18.0916 12.6614 18.1301C11.5264 17.3976 10.8219 16.1639 10.8219 14.7759C10.8219 14.0048 11.0176 13.3108 11.3699 12.7325C13.4051 15.1614 16.4579 16.7807 19.863 16.9735C19.7847 16.6651 19.7456 16.3566 19.7456 16.0482C19.7456 13.812 21.5851 12 23.8552 12C25.0294 12 26.0861 12.4627 26.8689 13.2723C27.7691 13.0795 28.6693 12.7325 29.4521 12.2699C29.1389 13.2337 28.5127 14.0048 27.6517 14.506C28.4736 14.4289 29.2955 14.1976 30 13.8892C29.4521 14.6988 28.7476 15.3928 27.9648 15.9711Z" fill="#261008"/>
</svg>
