<svg width="40" height="40" viewBox="0 0 40 40" fill="none" xmlns="http://www.w3.org/2000/svg">
<rect width="40" height="40" rx="20" fill="white" fill-opacity="0.5"/>
<path d="M30.9954 14.5417C31.5 16.2917 31.5 20.0417 31.5 20.0417C31.5 20.0417 31.5 23.75 30.9954 25.5417C30.7431 26.5417 29.9442 27.2917 28.9771 27.5417C27.1691 28 20.021 28 20.021 28C20.021 28 12.8309 28 11.0229 27.5417C10.0558 27.2917 9.25686 26.5417 9.00457 25.5417C8.5 23.75 8.5 20.0417 8.5 20.0417C8.5 20.0417 8.5 16.2917 9.00457 14.5417C9.25686 13.5417 10.0558 12.75 11.0229 12.5C12.8309 12 20.021 12 20.021 12C20.021 12 27.1691 12 28.9771 12.5C29.9442 12.75 30.7431 13.5417 30.9954 14.5417ZM17.6664 23.4167L23.6371 20.0417L17.6664 16.6667V23.4167Z" fill="#261008"/>
</svg>
